<svg width="23" height="23" viewBox="0 0 23 23" fill="none" xmlns="http://www.w3.org/2000/svg">
<g clip-path="url(#clip0)">
<path fill-rule="evenodd" clip-rule="evenodd" d="M6.36399 6.36397C5.05123 7.67673 4.31373 9.45721 4.31373 11.3137C4.31373 13.1702 5.05123 14.9507 6.36399 16.2635C7.67674 17.5762 9.45722 18.3137 11.3137 18.3137C13.1702 18.3137 14.9507 17.5762 16.2635 16.2635C17.5762 14.9507 18.3137 13.1702 18.3137 11.3137C18.3137 9.45721 17.5762 7.67673 16.2635 6.36397C14.9507 5.05122 13.1702 4.31372 11.3137 4.31372C9.45722 4.31372 7.67674 5.05122 6.36399 6.36397ZM5.65688 5.65687C4.15659 7.15716 3.31373 9.19199 3.31373 11.3137C3.31373 13.4355 4.15659 15.4703 5.65688 16.9706C7.15717 18.4709 9.192 19.3137 11.3137 19.3137C13.4355 19.3137 15.4703 18.4709 16.9706 16.9706C18.4709 15.4703 19.3137 13.4355 19.3137 11.3137C19.3137 9.19199 18.4709 7.15716 16.9706 5.65687C15.4703 4.15658 13.4355 3.31372 11.3137 3.31372C9.192 3.31372 7.15717 4.15658 5.65688 5.65687Z" fill="#AE285E"/>
<path fill-rule="evenodd" clip-rule="evenodd" d="M11.6671 15.2028L14.4955 12.3744C14.5893 12.2806 14.642 12.1535 14.642 12.0208C14.642 11.8882 14.5893 11.7611 14.4955 11.6673C14.4018 11.5735 14.2746 11.5208 14.142 11.5208C14.0094 11.5208 13.8822 11.5735 13.7884 11.6673L11.8135 13.6422L11.8142 7.77821C11.8142 7.64543 11.7614 7.51809 11.6676 7.42421C11.5737 7.33032 11.4463 7.27757 11.3136 7.27757C11.1808 7.27757 11.0534 7.33032 10.9596 7.42421C10.8657 7.51809 10.8129 7.64543 10.8129 7.77821L10.8136 13.6422L8.83868 11.6673C8.74491 11.5735 8.61773 11.5208 8.48513 11.5208C8.35252 11.5208 8.22534 11.5735 8.13157 11.6673C8.0378 11.7611 7.98513 11.8882 7.98513 12.0208C7.98513 12.1535 8.0378 12.2806 8.13157 12.3744L10.96 15.2028C11.0538 15.2966 11.1809 15.3493 11.3136 15.3493C11.4462 15.3493 11.5733 15.2966 11.6671 15.2028Z" fill="#AE285E"/>
</g>
<defs>
<clipPath id="clip0">
<rect width="16" height="16" fill="white" transform="translate(22.6274 11.3137) rotate(135)"/>
</clipPath>
</defs>
</svg>
