<svg width="23" height="23" viewBox="0 0 23 23" fill="none" xmlns="http://www.w3.org/2000/svg">
<g clip-path="url(#clip0)">
<path fill-rule="evenodd" clip-rule="evenodd" d="M16.2635 16.2635C17.5762 14.9507 18.3137 13.1702 18.3137 11.3137C18.3137 9.45721 17.5762 7.67673 16.2635 6.36397C14.9507 5.05122 13.1702 4.31372 11.3137 4.31372C9.45719 4.31372 7.67672 5.05122 6.36396 6.36397C5.05121 7.67673 4.31371 9.45721 4.31371 11.3137C4.31371 13.1702 5.05121 14.9507 6.36396 16.2635C7.67672 17.5762 9.45719 18.3137 11.3137 18.3137C13.1702 18.3137 14.9507 17.5762 16.2635 16.2635ZM16.9706 16.9706C18.4709 15.4703 19.3137 13.4355 19.3137 11.3137C19.3137 9.19199 18.4709 7.15716 16.9706 5.65687C15.4703 4.15658 13.4354 3.31372 11.3137 3.31372C9.19198 3.31372 7.15715 4.15658 5.65685 5.65687C4.15656 7.15716 3.31371 9.19199 3.31371 11.3137C3.31371 13.4355 4.15656 15.4703 5.65685 16.9706C7.15715 18.4709 9.19198 19.3137 11.3137 19.3137C13.4354 19.3137 15.4703 18.4709 16.9706 16.9706Z" fill="#59B24D"/>
<path fill-rule="evenodd" clip-rule="evenodd" d="M10.9603 7.42463L8.13191 10.2531C8.03814 10.3468 7.98546 10.474 7.98546 10.6066C7.98546 10.7392 8.03814 10.8664 8.13191 10.9602C8.22568 11.0539 8.35285 11.1066 8.48546 11.1066C8.61807 11.1066 8.74525 11.0539 8.83901 10.9602L10.814 8.98522L10.8133 14.8493C10.8133 14.982 10.866 15.1094 10.9599 15.2033C11.0538 15.2971 11.1811 15.3499 11.3139 15.3499C11.4467 15.3499 11.574 15.2971 11.6679 15.2033C11.7618 15.1094 11.8145 14.982 11.8145 14.8493L11.8138 8.98522L13.7888 10.9602C13.8825 11.0539 14.0097 11.1066 14.1423 11.1066C14.2749 11.1066 14.4021 11.0539 14.4959 10.9602C14.5896 10.8664 14.6423 10.7392 14.6423 10.6066C14.6423 10.474 14.5896 10.3468 14.4959 10.2531L11.6674 7.42463C11.5737 7.33086 11.4465 7.27819 11.3139 7.27819C11.1813 7.27819 11.0541 7.33086 10.9603 7.42463Z" fill="#59B24D"/>
</g>
<defs>
<clipPath id="clip0">
<rect width="16" height="16" fill="white" transform="translate(0 11.3137) rotate(-45)"/>
</clipPath>
</defs>
</svg>
