<svg width="359" height="97" viewBox="0 0 359 97" fill="none" xmlns="http://www.w3.org/2000/svg">
<g clip-path="url(#clip0)">
<g filter="url(#filter0_d)">
<rect width="97" height="97" rx="5" fill="white"/>
</g>
<g filter="url(#filter1_d)">
<rect x="113" width="97" height="97" rx="5" fill="white"/>
</g>
<g filter="url(#filter2_d)">
<rect x="339" width="97" height="97" rx="5" fill="white"/>
</g>
<g filter="url(#filter3_d)">
<rect x="226" width="97" height="97" rx="5" fill="white"/>
</g>
<path d="M35.7427 66V58.128H37.9867C38.4267 58.128 38.8267 58.168 39.1867 58.248C39.5547 58.328 39.8667 58.46 40.1227 58.644C40.3787 58.82 40.5787 59.056 40.7227 59.352C40.8667 59.648 40.9387 60.012 40.9387 60.444C40.9387 60.86 40.8667 61.22 40.7227 61.524C40.5867 61.828 40.3907 62.08 40.1347 62.28C39.8787 62.48 39.5707 62.632 39.2107 62.736C38.8587 62.832 38.4667 62.88 38.0347 62.88H36.7387V66H35.7427ZM36.7387 62.064H37.9147C38.6027 62.064 39.1107 61.936 39.4387 61.68C39.7747 61.416 39.9427 61.004 39.9427 60.444C39.9427 59.876 39.7667 59.484 39.4147 59.268C39.0707 59.044 38.5547 58.932 37.8667 58.932H36.7387V62.064ZM43.092 66.144C42.604 66.144 42.196 66 41.868 65.712C41.548 65.424 41.388 65.016 41.388 64.488C41.388 63.848 41.672 63.36 42.24 63.024C42.808 62.68 43.716 62.44 44.964 62.304C44.964 62.12 44.944 61.94 44.904 61.764C44.872 61.588 44.812 61.432 44.724 61.296C44.636 61.16 44.512 61.052 44.352 60.972C44.2 60.884 44.004 60.84 43.764 60.84C43.428 60.84 43.112 60.904 42.816 61.032C42.52 61.16 42.256 61.304 42.024 61.464L41.64 60.78C41.912 60.604 42.244 60.436 42.636 60.276C43.028 60.108 43.46 60.024 43.932 60.024C44.644 60.024 45.16 60.244 45.48 60.684C45.8 61.116 45.96 61.696 45.96 62.424V66H45.144L45.06 65.304H45.024C44.744 65.536 44.444 65.736 44.124 65.904C43.804 66.064 43.46 66.144 43.092 66.144ZM43.38 65.352C43.66 65.352 43.924 65.288 44.172 65.16C44.42 65.024 44.684 64.828 44.964 64.572V62.952C44.476 63.016 44.064 63.092 43.728 63.18C43.4 63.268 43.132 63.372 42.924 63.492C42.724 63.612 42.576 63.752 42.48 63.912C42.392 64.064 42.348 64.232 42.348 64.416C42.348 64.752 42.448 64.992 42.648 65.136C42.848 65.28 43.092 65.352 43.38 65.352ZM49.5829 68.688C49.2229 68.688 48.8949 68.652 48.5989 68.58C48.3029 68.516 48.0469 68.416 47.8309 68.28C47.6229 68.144 47.4589 67.98 47.3389 67.788C47.2269 67.596 47.1709 67.372 47.1709 67.116C47.1709 66.868 47.2469 66.632 47.3989 66.408C47.5509 66.184 47.7589 65.98 48.0229 65.796V65.748C47.8789 65.66 47.7549 65.54 47.6509 65.388C47.5549 65.228 47.5069 65.032 47.5069 64.8C47.5069 64.552 47.5749 64.336 47.7109 64.152C47.8469 63.968 47.9909 63.824 48.1429 63.72V63.672C47.9509 63.512 47.7749 63.3 47.6149 63.036C47.4629 62.764 47.3869 62.452 47.3869 62.1C47.3869 61.78 47.4429 61.492 47.5549 61.236C47.6749 60.98 47.8349 60.764 48.0349 60.588C48.2349 60.404 48.4669 60.264 48.7309 60.168C49.0029 60.072 49.2869 60.024 49.5829 60.024C49.7429 60.024 49.8909 60.04 50.0269 60.072C50.1709 60.096 50.2989 60.128 50.4109 60.168H52.4389V60.924H51.2389C51.3749 61.06 51.4869 61.232 51.5749 61.44C51.6709 61.648 51.7189 61.876 51.7189 62.124C51.7189 62.436 51.6629 62.72 51.5509 62.976C51.4389 63.224 51.2869 63.436 51.0949 63.612C50.9029 63.78 50.6749 63.912 50.4109 64.008C50.1549 64.104 49.8789 64.152 49.5829 64.152C49.4389 64.152 49.2909 64.136 49.1389 64.104C48.9869 64.064 48.8429 64.012 48.7069 63.948C48.6029 64.036 48.5149 64.136 48.4429 64.248C48.3709 64.352 48.3349 64.484 48.3349 64.644C48.3349 64.828 48.4069 64.98 48.5509 65.1C48.6949 65.22 48.9669 65.28 49.3669 65.28H50.4949C51.1749 65.28 51.6829 65.392 52.0189 65.616C52.3629 65.832 52.5349 66.184 52.5349 66.672C52.5349 66.944 52.4669 67.2 52.3309 67.44C52.1949 67.688 51.9989 67.904 51.7429 68.088C51.4869 68.272 51.1749 68.416 50.8069 68.52C50.4469 68.632 50.0389 68.688 49.5829 68.688ZM49.5829 63.492C49.7509 63.492 49.9069 63.46 50.0509 63.396C50.2029 63.332 50.3349 63.24 50.4469 63.12C50.5669 63 50.6589 62.856 50.7229 62.688C50.7869 62.512 50.8189 62.316 50.8189 62.1C50.8189 61.668 50.6989 61.336 50.4589 61.104C50.2189 60.864 49.9269 60.744 49.5829 60.744C49.2389 60.744 48.9469 60.864 48.7069 61.104C48.4669 61.336 48.3469 61.668 48.3469 62.1C48.3469 62.316 48.3789 62.512 48.4429 62.688C48.5069 62.856 48.5949 63 48.7069 63.12C48.8269 63.24 48.9589 63.332 49.1029 63.396C49.2549 63.46 49.4149 63.492 49.5829 63.492ZM49.7269 68.004C50.0069 68.004 50.2589 67.968 50.4829 67.896C50.7149 67.832 50.9109 67.744 51.0709 67.632C51.2309 67.528 51.3549 67.404 51.4429 67.26C51.5309 67.116 51.5749 66.968 51.5749 66.816C51.5749 66.544 51.4749 66.356 51.2749 66.252C51.0749 66.148 50.7829 66.096 50.3989 66.096H49.3909C49.2789 66.096 49.1549 66.088 49.0189 66.072C48.8909 66.064 48.7629 66.04 48.6349 66C48.4269 66.152 48.2749 66.312 48.1789 66.48C48.0829 66.648 48.0349 66.816 48.0349 66.984C48.0349 67.296 48.1829 67.544 48.4789 67.728C48.7829 67.912 49.1989 68.004 49.7269 68.004ZM54.6382 66.144C54.1502 66.144 53.7422 66 53.4142 65.712C53.0942 65.424 52.9342 65.016 52.9342 64.488C52.9342 63.848 53.2182 63.36 53.7862 63.024C54.3542 62.68 55.2622 62.44 56.5102 62.304C56.5102 62.12 56.4902 61.94 56.4502 61.764C56.4182 61.588 56.3582 61.432 56.2702 61.296C56.1822 61.16 56.0582 61.052 55.8982 60.972C55.7462 60.884 55.5502 60.84 55.3102 60.84C54.9742 60.84 54.6582 60.904 54.3622 61.032C54.0662 61.16 53.8022 61.304 53.5702 61.464L53.1862 60.78C53.4582 60.604 53.7902 60.436 54.1822 60.276C54.5742 60.108 55.0062 60.024 55.4782 60.024C56.1902 60.024 56.7062 60.244 57.0262 60.684C57.3462 61.116 57.5062 61.696 57.5062 62.424V66H56.6902L56.6062 65.304H56.5702C56.2902 65.536 55.9902 65.736 55.6702 65.904C55.3502 66.064 55.0062 66.144 54.6382 66.144ZM54.9262 65.352C55.2062 65.352 55.4702 65.288 55.7182 65.16C55.9662 65.024 56.2302 64.828 56.5102 64.572V62.952C56.0222 63.016 55.6102 63.092 55.2742 63.18C54.9462 63.268 54.6782 63.372 54.4702 63.492C54.2702 63.612 54.1222 63.752 54.0262 63.912C53.9382 64.064 53.8942 64.232 53.8942 64.416C53.8942 64.752 53.9942 64.992 54.1942 65.136C54.3942 65.28 54.6382 65.352 54.9262 65.352ZM59.1611 66V60.168H59.9771L60.0611 61.224H60.0971C60.2971 60.856 60.5371 60.564 60.8171 60.348C61.1051 60.132 61.4171 60.024 61.7531 60.024C61.9851 60.024 62.1931 60.064 62.3771 60.144L62.1851 61.008C62.0891 60.976 62.0011 60.952 61.9211 60.936C61.8411 60.92 61.7411 60.912 61.6211 60.912C61.3731 60.912 61.1131 61.012 60.8411 61.212C60.5771 61.412 60.3451 61.76 60.1451 62.256V66H59.1611ZM35.6618 77.144C35.2778 77.144 34.9178 77.076 34.5818 76.94C34.2458 76.804 33.9538 76.608 33.7058 76.352C33.4658 76.088 33.2738 75.768 33.1298 75.392C32.9938 75.008 32.9258 74.576 32.9258 74.096C32.9258 73.608 33.0018 73.176 33.1538 72.8C33.3058 72.416 33.5098 72.092 33.7658 71.828C34.0218 71.564 34.3178 71.364 34.6538 71.228C34.9978 71.092 35.3578 71.024 35.7338 71.024C36.1178 71.024 36.4458 71.092 36.7178 71.228C36.9898 71.364 37.2298 71.524 37.4378 71.708L36.9338 72.356C36.7658 72.204 36.5858 72.08 36.3938 71.984C36.2098 71.888 36.0018 71.84 35.7698 71.84C35.5058 71.84 35.2618 71.896 35.0378 72.008C34.8138 72.112 34.6218 72.264 34.4618 72.464C34.3018 72.664 34.1738 72.904 34.0778 73.184C33.9898 73.456 33.9458 73.76 33.9458 74.096C33.9458 74.432 33.9898 74.736 34.0778 75.008C34.1658 75.28 34.2858 75.516 34.4378 75.716C34.5978 75.908 34.7898 76.06 35.0138 76.172C35.2378 76.276 35.4818 76.328 35.7458 76.328C36.0178 76.328 36.2658 76.272 36.4898 76.16C36.7218 76.04 36.9298 75.9 37.1138 75.74L37.5458 76.4C37.2818 76.632 36.9898 76.816 36.6698 76.952C36.3498 77.08 36.0138 77.144 35.6618 77.144ZM40.6607 77.144C40.3007 77.144 39.9567 77.076 39.6287 76.94C39.3087 76.804 39.0247 76.608 38.7767 76.352C38.5287 76.088 38.3287 75.768 38.1767 75.392C38.0327 75.008 37.9607 74.576 37.9607 74.096C37.9607 73.608 38.0327 73.176 38.1767 72.8C38.3287 72.416 38.5287 72.092 38.7767 71.828C39.0247 71.564 39.3087 71.364 39.6287 71.228C39.9567 71.092 40.3007 71.024 40.6607 71.024C41.0207 71.024 41.3607 71.092 41.6807 71.228C42.0087 71.364 42.2967 71.564 42.5447 71.828C42.7927 72.092 42.9887 72.416 43.1327 72.8C43.2847 73.176 43.3607 73.608 43.3607 74.096C43.3607 74.576 43.2847 75.008 43.1327 75.392C42.9887 75.768 42.7927 76.088 42.5447 76.352C42.2967 76.608 42.0087 76.804 41.6807 76.94C41.3607 77.076 41.0207 77.144 40.6607 77.144ZM40.6607 76.328C40.9087 76.328 41.1367 76.276 41.3447 76.172C41.5527 76.06 41.7287 75.908 41.8727 75.716C42.0247 75.516 42.1407 75.28 42.2207 75.008C42.3007 74.736 42.3407 74.432 42.3407 74.096C42.3407 73.76 42.3007 73.456 42.2207 73.184C42.1407 72.904 42.0247 72.664 41.8727 72.464C41.7287 72.264 41.5527 72.112 41.3447 72.008C41.1367 71.896 40.9087 71.84 40.6607 71.84C40.4127 71.84 40.1847 71.896 39.9767 72.008C39.7687 72.112 39.5887 72.264 39.4367 72.464C39.2927 72.664 39.1807 72.904 39.1007 73.184C39.0207 73.456 38.9807 73.76 38.9807 74.096C38.9807 74.432 39.0207 74.736 39.1007 75.008C39.1807 75.28 39.2927 75.516 39.4367 75.716C39.5887 75.908 39.7687 76.06 39.9767 76.172C40.1847 76.276 40.4127 76.328 40.6607 76.328ZM44.7166 77V71.168H45.5326L45.6166 72.008H45.6526C45.9326 71.728 46.2246 71.496 46.5286 71.312C46.8406 71.12 47.2006 71.024 47.6086 71.024C48.2246 71.024 48.6726 71.216 48.9526 71.6C49.2406 71.984 49.3846 72.552 49.3846 73.304V77H48.4006V73.436C48.4006 72.884 48.3126 72.488 48.1366 72.248C47.9606 72 47.6806 71.876 47.2966 71.876C46.9926 71.876 46.7246 71.952 46.4926 72.104C46.2606 72.256 45.9966 72.48 45.7006 72.776V77H44.7166ZM52.9351 77.144C52.6231 77.144 52.3591 77.096 52.1431 77C51.9351 76.904 51.7631 76.772 51.6271 76.604C51.4991 76.436 51.4071 76.232 51.3511 75.992C51.2951 75.752 51.2671 75.488 51.2671 75.2V71.972H50.4031V71.228L51.3151 71.168L51.4351 69.536H52.2631V71.168H53.8351V71.972H52.2631V75.212C52.2631 75.572 52.3271 75.852 52.4551 76.052C52.5911 76.244 52.8271 76.34 53.1631 76.34C53.2671 76.34 53.3791 76.324 53.4991 76.292C53.6191 76.26 53.7271 76.224 53.8231 76.184L54.0151 76.928C53.8551 76.984 53.6791 77.032 53.4871 77.072C53.3031 77.12 53.1191 77.144 52.9351 77.144ZM56.06 77.144C55.572 77.144 55.164 77 54.836 76.712C54.516 76.424 54.356 76.016 54.356 75.488C54.356 74.848 54.64 74.36 55.208 74.024C55.776 73.68 56.684 73.44 57.932 73.304C57.932 73.12 57.912 72.94 57.872 72.764C57.84 72.588 57.78 72.432 57.692 72.296C57.604 72.16 57.48 72.052 57.32 71.972C57.168 71.884 56.972 71.84 56.732 71.84C56.396 71.84 56.08 71.904 55.784 72.032C55.488 72.16 55.224 72.304 54.992 72.464L54.608 71.78C54.88 71.604 55.212 71.436 55.604 71.276C55.996 71.108 56.428 71.024 56.9 71.024C57.612 71.024 58.128 71.244 58.448 71.684C58.768 72.116 58.928 72.696 58.928 73.424V77H58.112L58.028 76.304H57.992C57.712 76.536 57.412 76.736 57.092 76.904C56.772 77.064 56.428 77.144 56.06 77.144ZM56.348 76.352C56.628 76.352 56.892 76.288 57.14 76.16C57.388 76.024 57.652 75.828 57.932 75.572V73.952C57.444 74.016 57.032 74.092 56.696 74.18C56.368 74.268 56.1 74.372 55.892 74.492C55.692 74.612 55.544 74.752 55.448 74.912C55.36 75.064 55.316 75.232 55.316 75.416C55.316 75.752 55.416 75.992 55.616 76.136C55.816 76.28 56.06 76.352 56.348 76.352ZM62.1068 77.144C61.6908 77.144 61.2948 77.068 60.9188 76.916C60.5428 76.764 60.2148 76.572 59.9348 76.34L60.4268 75.68C60.6828 75.888 60.9428 76.056 61.2068 76.184C61.4788 76.312 61.7908 76.376 62.1428 76.376C62.5268 76.376 62.8148 76.288 63.0068 76.112C63.1988 75.936 63.2948 75.72 63.2948 75.464C63.2948 75.312 63.2548 75.18 63.1748 75.068C63.0948 74.956 62.9908 74.86 62.8628 74.78C62.7428 74.692 62.6028 74.616 62.4428 74.552C62.2828 74.488 62.1228 74.424 61.9628 74.36C61.7548 74.288 61.5468 74.208 61.3388 74.12C61.1308 74.024 60.9428 73.912 60.7748 73.784C60.6148 73.648 60.4828 73.492 60.3788 73.316C60.2748 73.14 60.2228 72.928 60.2228 72.68C60.2228 72.448 60.2668 72.232 60.3548 72.032C60.4508 71.824 60.5828 71.648 60.7508 71.504C60.9268 71.352 61.1388 71.236 61.3868 71.156C61.6348 71.068 61.9148 71.024 62.2268 71.024C62.5948 71.024 62.9308 71.088 63.2348 71.216C63.5468 71.344 63.8148 71.5 64.0388 71.684L63.5708 72.308C63.3708 72.156 63.1628 72.032 62.9468 71.936C62.7308 71.84 62.4948 71.792 62.2388 71.792C61.8708 71.792 61.5988 71.876 61.4228 72.044C61.2548 72.212 61.1708 72.408 61.1708 72.632C61.1708 72.768 61.2068 72.888 61.2788 72.992C61.3508 73.088 61.4468 73.176 61.5668 73.256C61.6868 73.328 61.8228 73.396 61.9748 73.46C62.1348 73.516 62.2988 73.576 62.4668 73.64C62.6748 73.72 62.8828 73.804 63.0908 73.892C63.3068 73.98 63.4988 74.092 63.6668 74.228C63.8348 74.356 63.9708 74.516 64.0748 74.708C64.1868 74.9 64.2428 75.132 64.2428 75.404C64.2428 75.644 64.1948 75.868 64.0988 76.076C64.0108 76.284 63.8748 76.468 63.6908 76.628C63.5148 76.788 63.2908 76.912 63.0188 77C62.7548 77.096 62.4508 77.144 62.1068 77.144Z" fill="#3E3E3E"/>
<g clip-path="url(#clip1)">
<path d="M36.0408 20.7245H32.6735C32.3015 20.7245 32 21.026 32 21.3979V24.7653C32 25.1373 32.3015 25.4388 32.6735 25.4388C33.0454 25.4388 33.3469 25.1373 33.3469 24.7653V22.0714H36.0408C36.4128 22.0714 36.7143 21.7699 36.7143 21.3979C36.7143 21.026 36.4128 20.7245 36.0408 20.7245Z" fill="#006583"/>
<path d="M64.3265 20.7245H60.9591C60.5872 20.7245 60.2856 21.026 60.2856 21.3979C60.2856 21.7699 60.5872 22.0714 60.9591 22.0714H63.653V24.7653C63.653 25.1373 63.9545 25.4388 64.3265 25.4388C64.6984 25.4388 64.9999 25.1373 64.9999 24.7653V21.3979C64.9999 21.026 64.6984 20.7245 64.3265 20.7245Z" fill="#006583"/>
<path d="M64.3265 37.5612C63.9545 37.5612 63.653 37.8628 63.653 38.2347V40.9286H60.9591C60.5872 40.9286 60.2856 41.2301 60.2856 41.6021C60.2856 41.974 60.5872 42.2755 60.9591 42.2755H64.3265C64.6984 42.2755 64.9999 41.974 64.9999 41.6021V38.2347C64.9999 37.8628 64.6984 37.5612 64.3265 37.5612Z" fill="#006583"/>
<path d="M36.0408 40.9286H33.3469V38.2347C33.3469 37.8628 33.0454 37.5612 32.6735 37.5612C32.3015 37.5612 32 37.8628 32 38.2347V41.6021C32 41.974 32.3015 42.2755 32.6735 42.2755H36.0408C36.4128 42.2755 36.7143 41.974 36.7143 41.6021C36.7143 41.2301 36.4128 40.9286 36.0408 40.9286Z" fill="#006583"/>
<path d="M62.3059 38.9082V24.0918C62.3059 23.7199 62.0044 23.4184 61.6325 23.4184C61.2605 23.4184 60.959 23.7199 60.959 24.0918V38.9082C60.959 39.2801 61.2605 39.5817 61.6325 39.5817C62.0044 39.5817 62.3059 39.2801 62.3059 38.9082Z" fill="#006583"/>
<path d="M58.3493 23.4184C57.9773 23.4184 57.6758 23.7199 57.6758 24.0918V35.7207C57.6758 36.0926 57.9773 36.3941 58.3493 36.3941C58.7212 36.3941 59.0227 36.0926 59.0227 35.7207V24.0918C59.0227 23.7199 58.7212 23.4184 58.3493 23.4184Z" fill="#006583"/>
<path d="M58.3493 38.0778C57.9773 38.0778 57.6758 38.3793 57.6758 38.7512V38.9082C57.6758 39.2801 57.9773 39.5817 58.3493 39.5817C58.7212 39.5817 59.0227 39.2801 59.0227 38.9082V38.7512C59.0227 38.3793 58.7212 38.0778 58.3493 38.0778Z" fill="#006583"/>
<path d="M55.0661 23.4184C54.6941 23.4184 54.3926 23.7199 54.3926 24.0918V35.7207C54.3926 36.0926 54.6941 36.3941 55.0661 36.3941C55.438 36.3941 55.7395 36.0926 55.7395 35.7207V24.0918C55.7395 23.7199 55.438 23.4184 55.0661 23.4184Z" fill="#006583"/>
<path d="M55.0661 38.0778C54.6941 38.0778 54.3926 38.3793 54.3926 38.7512V38.9082C54.3926 39.2801 54.6941 39.5817 55.0661 39.5817C55.438 39.5817 55.7395 39.2801 55.7395 38.9082V38.7512C55.7395 38.3793 55.438 38.0778 55.0661 38.0778Z" fill="#006583"/>
<path d="M51.7833 23.4184C51.4114 23.4184 51.1099 23.7199 51.1099 24.0918V35.7207C51.1099 36.0926 51.4114 36.3941 51.7833 36.3941C52.1553 36.3941 52.4568 36.0926 52.4568 35.7207V24.0918C52.4568 23.7199 52.1553 23.4184 51.7833 23.4184Z" fill="#006583"/>
<path d="M51.7833 38.0778C51.4114 38.0778 51.1099 38.3793 51.1099 38.7512V38.9082C51.1099 39.2801 51.4114 39.5817 51.7833 39.5817C52.1553 39.5817 52.4568 39.2801 52.4568 38.9082V38.7512C52.4568 38.3793 52.1553 38.0778 51.7833 38.0778Z" fill="#006583"/>
<path d="M48.5001 23.4184C48.1282 23.4184 47.8267 23.7199 47.8267 24.0918V35.7207C47.8267 36.0926 48.1282 36.3941 48.5001 36.3941C48.8721 36.3941 49.1736 36.0926 49.1736 35.7207V24.0918C49.1736 23.7199 48.8721 23.4184 48.5001 23.4184Z" fill="#006583"/>
<path d="M48.5001 38.0778C48.1282 38.0778 47.8267 38.3793 47.8267 38.7512V38.9082C47.8267 39.2801 48.1282 39.5817 48.5001 39.5817C48.8721 39.5817 49.1736 39.2801 49.1736 38.9082V38.7512C49.1736 38.3793 48.8721 38.0778 48.5001 38.0778Z" fill="#006583"/>
<path d="M45.2169 23.4184C44.845 23.4184 44.5435 23.7199 44.5435 24.0918V35.7207C44.5435 36.0926 44.845 36.3941 45.2169 36.3941C45.5889 36.3941 45.8904 36.0926 45.8904 35.7207V24.0918C45.8904 23.7199 45.5889 23.4184 45.2169 23.4184Z" fill="#006583"/>
<path d="M45.2169 38.0778C44.845 38.0778 44.5435 38.3793 44.5435 38.7512V38.9082C44.5435 39.2801 44.845 39.5817 45.2169 39.5817C45.5889 39.5817 45.8904 39.2801 45.8904 38.9082V38.7512C45.8904 38.3793 45.5889 38.0778 45.2169 38.0778Z" fill="#006583"/>
<path d="M41.9337 23.4184C41.5618 23.4184 41.2603 23.7199 41.2603 24.0918V35.7207C41.2603 36.0926 41.5618 36.3941 41.9337 36.3941C42.3057 36.3941 42.6072 36.0926 42.6072 35.7207V24.0918C42.6072 23.7199 42.3057 23.4184 41.9337 23.4184Z" fill="#006583"/>
<path d="M41.9337 38.0778C41.5618 38.0778 41.2603 38.3793 41.2603 38.7512V38.9082C41.2603 39.2801 41.5618 39.5817 41.9337 39.5817C42.3057 39.5817 42.6072 39.2801 42.6072 38.9082V38.7512C42.6072 38.3793 42.3057 38.0778 41.9337 38.0778Z" fill="#006583"/>
<path d="M38.6505 23.4184C38.2786 23.4184 37.9771 23.7199 37.9771 24.0918V35.7207C37.9771 36.0926 38.2786 36.3941 38.6505 36.3941C39.0225 36.3941 39.324 36.0926 39.324 35.7207V24.0918C39.324 23.7199 39.0225 23.4184 38.6505 23.4184Z" fill="#006583"/>
<path d="M38.6505 38.0778C38.2786 38.0778 37.9771 38.3793 37.9771 38.7512V38.9082C37.9771 39.2801 38.2786 39.5817 38.6505 39.5817C39.0225 39.5817 39.324 39.2801 39.324 38.9082V38.7512C39.324 38.3793 39.0225 38.0778 38.6505 38.0778Z" fill="#006583"/>
<path d="M36.0408 38.9082V24.0918C36.0408 23.7199 35.7393 23.4184 35.3673 23.4184C34.9954 23.4184 34.6938 23.7199 34.6938 24.0918V38.9082C34.6938 39.2801 34.9954 39.5817 35.3673 39.5817C35.7393 39.5817 36.0408 39.2801 36.0408 38.9082Z" fill="#006583"/>
</g>
<path d="M141.022 72V64.968H138.646V64.128H144.406V64.968H142.03V72H141.022ZM144.997 72V66.168H145.813L145.897 67.224H145.933C146.133 66.856 146.373 66.564 146.653 66.348C146.941 66.132 147.253 66.024 147.589 66.024C147.821 66.024 148.029 66.064 148.213 66.144L148.021 67.008C147.925 66.976 147.837 66.952 147.757 66.936C147.677 66.92 147.577 66.912 147.457 66.912C147.209 66.912 146.949 67.012 146.677 67.212C146.413 67.412 146.181 67.76 145.981 68.256V72H144.997ZM150.028 72.144C149.54 72.144 149.132 72 148.804 71.712C148.484 71.424 148.324 71.016 148.324 70.488C148.324 69.848 148.608 69.36 149.176 69.024C149.744 68.68 150.652 68.44 151.9 68.304C151.9 68.12 151.88 67.94 151.84 67.764C151.808 67.588 151.748 67.432 151.66 67.296C151.572 67.16 151.448 67.052 151.288 66.972C151.136 66.884 150.94 66.84 150.7 66.84C150.364 66.84 150.048 66.904 149.752 67.032C149.456 67.16 149.192 67.304 148.96 67.464L148.576 66.78C148.848 66.604 149.18 66.436 149.572 66.276C149.964 66.108 150.396 66.024 150.868 66.024C151.58 66.024 152.096 66.244 152.416 66.684C152.736 67.116 152.896 67.696 152.896 68.424V72H152.08L151.996 71.304H151.96C151.68 71.536 151.38 71.736 151.06 71.904C150.74 72.064 150.396 72.144 150.028 72.144ZM150.316 71.352C150.596 71.352 150.86 71.288 151.108 71.16C151.356 71.024 151.62 70.828 151.9 70.572V68.952C151.412 69.016 151 69.092 150.664 69.18C150.336 69.268 150.068 69.372 149.86 69.492C149.66 69.612 149.512 69.752 149.416 69.912C149.328 70.064 149.284 70.232 149.284 70.416C149.284 70.752 149.384 70.992 149.584 71.136C149.784 71.28 150.028 71.352 150.316 71.352ZM154.551 72V66.168H155.367L155.451 67.008H155.487C155.767 66.728 156.059 66.496 156.363 66.312C156.675 66.12 157.035 66.024 157.443 66.024C158.059 66.024 158.507 66.216 158.787 66.6C159.075 66.984 159.219 67.552 159.219 68.304V72H158.235V68.436C158.235 67.884 158.147 67.488 157.971 67.248C157.795 67 157.515 66.876 157.131 66.876C156.827 66.876 156.559 66.952 156.327 67.104C156.095 67.256 155.831 67.48 155.535 67.776V72H154.551ZM162.457 72.144C162.041 72.144 161.645 72.068 161.269 71.916C160.893 71.764 160.565 71.572 160.285 71.34L160.777 70.68C161.033 70.888 161.293 71.056 161.557 71.184C161.829 71.312 162.141 71.376 162.493 71.376C162.877 71.376 163.165 71.288 163.357 71.112C163.549 70.936 163.645 70.72 163.645 70.464C163.645 70.312 163.605 70.18 163.525 70.068C163.445 69.956 163.341 69.86 163.213 69.78C163.093 69.692 162.953 69.616 162.793 69.552C162.633 69.488 162.473 69.424 162.313 69.36C162.105 69.288 161.897 69.208 161.689 69.12C161.481 69.024 161.293 68.912 161.125 68.784C160.965 68.648 160.833 68.492 160.729 68.316C160.625 68.14 160.573 67.928 160.573 67.68C160.573 67.448 160.617 67.232 160.705 67.032C160.801 66.824 160.933 66.648 161.101 66.504C161.277 66.352 161.489 66.236 161.737 66.156C161.985 66.068 162.265 66.024 162.577 66.024C162.945 66.024 163.281 66.088 163.585 66.216C163.897 66.344 164.165 66.5 164.389 66.684L163.921 67.308C163.721 67.156 163.513 67.032 163.297 66.936C163.081 66.84 162.845 66.792 162.589 66.792C162.221 66.792 161.949 66.876 161.773 67.044C161.605 67.212 161.521 67.408 161.521 67.632C161.521 67.768 161.557 67.888 161.629 67.992C161.701 68.088 161.797 68.176 161.917 68.256C162.037 68.328 162.173 68.396 162.325 68.46C162.485 68.516 162.649 68.576 162.817 68.64C163.025 68.72 163.233 68.804 163.441 68.892C163.657 68.98 163.849 69.092 164.017 69.228C164.185 69.356 164.321 69.516 164.425 69.708C164.537 69.9 164.593 70.132 164.593 70.404C164.593 70.644 164.545 70.868 164.449 71.076C164.361 71.284 164.225 71.468 164.041 71.628C163.865 71.788 163.641 71.912 163.369 72C163.105 72.096 162.801 72.144 162.457 72.144ZM165.949 72V66.972H165.157V66.228L165.949 66.168V65.244C165.949 64.644 166.085 64.172 166.357 63.828C166.637 63.484 167.069 63.312 167.653 63.312C167.837 63.312 168.009 63.332 168.169 63.372C168.337 63.404 168.489 63.448 168.625 63.504L168.409 64.26C168.193 64.164 167.973 64.116 167.749 64.116C167.205 64.116 166.933 64.492 166.933 65.244V66.168H168.169V66.972H166.933V72H165.949ZM171.351 72.144C170.959 72.144 170.591 72.076 170.247 71.94C169.911 71.796 169.615 71.596 169.359 71.34C169.111 71.076 168.915 70.756 168.771 70.38C168.627 70.004 168.555 69.576 168.555 69.096C168.555 68.616 168.627 68.188 168.771 67.812C168.923 67.428 169.119 67.104 169.359 66.84C169.607 66.576 169.887 66.376 170.199 66.24C170.511 66.096 170.835 66.024 171.171 66.024C171.539 66.024 171.867 66.088 172.155 66.216C172.451 66.344 172.695 66.528 172.887 66.768C173.087 67.008 173.239 67.296 173.343 67.632C173.447 67.968 173.499 68.344 173.499 68.76C173.499 68.864 173.495 68.968 173.487 69.072C173.487 69.168 173.479 69.252 173.463 69.324H169.527C169.567 69.948 169.759 70.444 170.103 70.812C170.455 71.172 170.911 71.352 171.471 71.352C171.751 71.352 172.007 71.312 172.239 71.232C172.479 71.144 172.707 71.032 172.923 70.896L173.271 71.544C173.015 71.704 172.731 71.844 172.419 71.964C172.107 72.084 171.751 72.144 171.351 72.144ZM169.515 68.616H172.635C172.635 68.024 172.507 67.576 172.251 67.272C172.003 66.96 171.651 66.804 171.195 66.804C170.987 66.804 170.787 66.844 170.595 66.924C170.411 67.004 170.243 67.124 170.091 67.284C169.939 67.436 169.811 67.624 169.707 67.848C169.611 68.072 169.547 68.328 169.515 68.616ZM174.761 72V66.168H175.577L175.661 67.224H175.697C175.897 66.856 176.137 66.564 176.417 66.348C176.705 66.132 177.017 66.024 177.353 66.024C177.585 66.024 177.793 66.064 177.977 66.144L177.785 67.008C177.689 66.976 177.601 66.952 177.521 66.936C177.441 66.92 177.341 66.912 177.221 66.912C176.973 66.912 176.713 67.012 176.441 67.212C176.177 67.412 175.945 67.76 175.745 68.256V72H174.761ZM178.741 72V66.168H179.725V72H178.741ZM179.245 64.968C179.053 64.968 178.889 64.908 178.753 64.788C178.625 64.668 178.561 64.516 178.561 64.332C178.561 64.14 178.625 63.988 178.753 63.876C178.889 63.756 179.053 63.696 179.245 63.696C179.437 63.696 179.597 63.756 179.725 63.876C179.861 63.988 179.929 64.14 179.929 64.332C179.929 64.516 179.861 64.668 179.725 64.788C179.597 64.908 179.437 64.968 179.245 64.968ZM181.514 72V66.168H182.33L182.414 67.224H182.45C182.65 66.856 182.89 66.564 183.17 66.348C183.458 66.132 183.77 66.024 184.106 66.024C184.338 66.024 184.546 66.064 184.73 66.144L184.538 67.008C184.442 66.976 184.354 66.952 184.274 66.936C184.194 66.92 184.094 66.912 183.974 66.912C183.726 66.912 183.466 67.012 183.194 67.212C182.93 67.412 182.698 67.76 182.498 68.256V72H181.514Z" fill="#3E3E3E"/>
<g clip-path="url(#clip2)">
<path d="M283.221 18.8078C283.233 18.8088 283.246 18.8097 283.259 18.8097C283.281 18.8097 283.302 18.8078 283.324 18.8049C283.895 18.8166 284.352 19.2823 284.352 19.8533C284.352 20.1128 284.563 20.3231 284.822 20.3231C285.082 20.3231 285.292 20.1128 285.292 19.8533C285.291 18.9193 284.641 18.1113 283.729 17.9104V17.4589C283.729 17.1994 283.518 16.989 283.259 16.989C282.999 16.989 282.789 17.1994 282.789 17.4589V17.9317C281.825 18.1896 281.201 19.1226 281.331 20.1125C281.461 21.1025 282.304 21.8426 283.303 21.8426C283.883 21.8426 284.352 22.3126 284.352 22.8924C284.352 23.4719 283.883 23.942 283.303 23.942C282.723 23.942 282.253 23.4719 282.253 22.8924C282.253 22.6329 282.043 22.4225 281.783 22.4225C281.524 22.4225 281.314 22.6329 281.314 22.8924C281.315 23.7926 281.919 24.5802 282.789 24.814V25.3288C282.789 25.5882 282.999 25.7986 283.259 25.7986C283.518 25.7986 283.729 25.5882 283.729 25.3288V24.8355C284.721 24.6183 285.39 23.6882 285.281 22.6783C285.171 21.6684 284.319 20.9031 283.303 20.9033C282.739 20.9036 282.276 20.4585 282.254 19.8953C282.232 19.3321 282.659 18.8519 283.221 18.8081V18.8078Z" fill="#006583"/>
<path d="M283.33 14.6919C280.439 14.6919 277.973 16.5779 277.049 19.1033H265.387C265.129 19.1033 264.919 19.3362 264.917 19.5943L264.806 36.0765H261.482C261.223 36.0765 261 36.2644 261 36.5243V38.6159C261.006 40.585 262.557 42.2026 264.524 42.2916V42.3019H279.03V42.2882C279.148 42.2925 279.196 42.3019 279.271 42.3019H279.281C281.316 42.2987 282.965 40.6474 282.965 38.6115V28.0363C283.083 28.0428 283.207 28.0462 283.329 28.0462C287.007 28.0462 290 25.0473 290 21.3688C290 17.6906 287.008 14.6919 283.33 14.6919ZM264.703 41.3622H264.7C263.18 41.3602 261.947 40.1312 261.94 38.6111V37.0162H275.565V38.6044C275.566 39.5849 275.957 40.5249 276.653 41.2161C276.702 41.2654 276.764 41.3035 276.815 41.3622H264.703ZM282.026 38.6111C282.026 40.1284 280.797 41.3592 279.28 41.3622H279.271C277.748 41.3595 276.512 40.128 276.505 38.6049V36.5243C276.509 36.4041 276.463 36.2878 276.378 36.2029C276.293 36.118 276.176 36.0723 276.056 36.0765H265.746L265.854 20.043H276.788C276.704 20.4732 276.661 20.91 276.659 21.3479C276.658 22.2741 276.851 23.1899 277.226 24.0367H272.788C272.529 24.0367 272.318 24.2471 272.318 24.5065C272.318 24.766 272.529 24.9764 272.788 24.9764H277.736C278.705 26.5006 280.255 27.5633 282.026 27.9189V38.6111ZM283.33 27.1067C280.165 27.1067 277.599 24.541 277.599 21.3757C277.599 18.2104 280.165 15.6446 283.33 15.6446C286.495 15.6446 289.061 18.2107 289.061 21.3757C289.057 24.5394 286.494 27.1033 283.33 27.1067Z" fill="#006583"/>
<path d="M269.772 27.1637C268.943 27.1637 268.269 27.8168 268.269 28.6198C268.269 29.4227 268.943 30.0759 269.772 30.0759C270.602 30.0759 271.276 29.4227 271.276 28.6198C271.276 27.8168 270.602 27.1637 269.772 27.1637ZM269.772 29.1362C269.461 29.1362 269.208 28.9045 269.208 28.6198C269.208 28.3348 269.461 28.1033 269.772 28.1033C270.083 28.1033 270.337 28.3351 270.337 28.6198C270.337 28.9045 270.083 29.1362 269.772 29.1362Z" fill="#006583"/>
<path d="M272.318 28.6177C272.318 28.8772 272.529 29.0875 272.788 29.0875H279.052C279.312 29.0875 279.522 28.8772 279.522 28.6177C279.522 28.3582 279.312 28.1478 279.052 28.1478H272.788C272.529 28.1478 272.318 28.3582 272.318 28.6177Z" fill="#006583"/>
<path d="M269.772 23.0793C268.943 23.0793 268.269 23.7327 268.269 24.5357C268.269 25.3386 268.943 25.9918 269.772 25.9918C270.602 25.9918 271.276 25.3386 271.276 24.5357C271.276 23.7327 270.602 23.0793 269.772 23.0793ZM269.772 25.0521C269.461 25.0521 269.208 24.8204 269.208 24.5357C269.208 24.251 269.461 24.019 269.772 24.019C270.083 24.019 270.337 24.2508 270.337 24.5357C270.337 24.8204 270.083 25.0523 269.772 25.0523V25.0521Z" fill="#006583"/>
<path d="M269.772 31.2475C268.943 31.2475 268.269 31.9006 268.269 32.7036C268.269 33.5066 268.943 34.1597 269.772 34.1597C270.602 34.1597 271.276 33.5066 271.276 32.7036C271.276 31.9006 270.602 31.2475 269.772 31.2475ZM269.772 33.22C269.461 33.22 269.208 32.9885 269.208 32.7036C269.208 32.4189 269.461 32.1872 269.772 32.1872C270.083 32.1872 270.337 32.4189 270.337 32.7036C270.337 32.9883 270.083 33.22 269.772 33.22Z" fill="#006583"/>
<path d="M279.052 32.259H272.788C272.529 32.259 272.318 32.4694 272.318 32.7288C272.318 32.9883 272.529 33.1987 272.788 33.1987H279.052C279.312 33.1987 279.522 32.9883 279.522 32.7288C279.522 32.4694 279.312 32.259 279.052 32.259Z" fill="#006583"/>
</g>
<path d="M263.707 65.316C264.059 65.316 264.375 65.24 264.655 65.088C264.943 64.936 265.187 64.716 265.387 64.428C265.595 64.14 265.755 63.796 265.867 63.396C265.979 62.988 266.035 62.532 266.035 62.028C266.035 61.54 265.979 61.1 265.867 60.708C265.755 60.316 265.595 59.984 265.387 59.712C265.187 59.44 264.943 59.232 264.655 59.088C264.375 58.936 264.059 58.86 263.707 58.86C263.355 58.86 263.035 58.936 262.747 59.088C262.467 59.232 262.223 59.44 262.015 59.712C261.815 59.984 261.659 60.316 261.547 60.708C261.435 61.1 261.379 61.54 261.379 62.028C261.379 62.532 261.435 62.988 261.547 63.396C261.659 63.796 261.815 64.14 262.015 64.428C262.223 64.716 262.467 64.936 262.747 65.088C263.035 65.24 263.355 65.316 263.707 65.316ZM266.119 67.98C265.759 67.98 265.423 67.932 265.111 67.836C264.807 67.748 264.531 67.62 264.283 67.452C264.043 67.284 263.831 67.084 263.647 66.852C263.471 66.628 263.327 66.38 263.215 66.108C262.783 66.052 262.391 65.916 262.039 65.7C261.687 65.484 261.383 65.2 261.127 64.848C260.879 64.496 260.687 64.084 260.551 63.612C260.415 63.132 260.347 62.604 260.347 62.028C260.347 61.396 260.427 60.832 260.587 60.336C260.755 59.832 260.987 59.408 261.283 59.064C261.579 58.712 261.931 58.444 262.339 58.26C262.755 58.076 263.211 57.984 263.707 57.984C264.203 57.984 264.655 58.08 265.063 58.272C265.479 58.456 265.835 58.724 266.131 59.076C266.435 59.42 266.667 59.844 266.827 60.348C266.995 60.844 267.079 61.404 267.079 62.028C267.079 62.596 267.011 63.116 266.875 63.588C266.747 64.052 266.559 64.46 266.311 64.812C266.071 65.156 265.779 65.44 265.435 65.664C265.091 65.88 264.711 66.024 264.295 66.096C264.479 66.448 264.739 66.708 265.075 66.876C265.411 67.052 265.795 67.14 266.227 67.14C266.403 67.14 266.555 67.128 266.683 67.104C266.819 67.088 266.943 67.064 267.055 67.032L267.247 67.8C267.127 67.848 266.967 67.888 266.767 67.92C266.567 67.96 266.351 67.98 266.119 67.98ZM270.2 66.144C269.576 66.144 269.12 65.952 268.832 65.568C268.552 65.184 268.412 64.616 268.412 63.864V60.168H269.408V63.732C269.408 64.284 269.492 64.684 269.66 64.932C269.836 65.172 270.116 65.292 270.5 65.292C270.804 65.292 271.072 65.216 271.304 65.064C271.536 64.904 271.792 64.652 272.072 64.308V60.168H273.056V66H272.24L272.156 65.088H272.12C271.848 65.408 271.56 65.664 271.256 65.856C270.96 66.048 270.608 66.144 270.2 66.144ZM274.844 66V60.168H275.828V66H274.844ZM275.348 58.968C275.156 58.968 274.992 58.908 274.856 58.788C274.728 58.668 274.664 58.516 274.664 58.332C274.664 58.14 274.728 57.988 274.856 57.876C274.992 57.756 275.156 57.696 275.348 57.696C275.54 57.696 275.7 57.756 275.828 57.876C275.964 57.988 276.032 58.14 276.032 58.332C276.032 58.516 275.964 58.668 275.828 58.788C275.7 58.908 275.54 58.968 275.348 58.968ZM279.453 66.144C279.141 66.144 278.877 66.096 278.661 66C278.453 65.904 278.281 65.772 278.145 65.604C278.017 65.436 277.925 65.232 277.869 64.992C277.813 64.752 277.785 64.488 277.785 64.2V60.972H276.921V60.228L277.833 60.168L277.953 58.536H278.781V60.168H280.353V60.972H278.781V64.212C278.781 64.572 278.845 64.852 278.973 65.052C279.109 65.244 279.345 65.34 279.681 65.34C279.785 65.34 279.897 65.324 280.017 65.292C280.137 65.26 280.245 65.224 280.341 65.184L280.533 65.928C280.373 65.984 280.197 66.032 280.005 66.072C279.821 66.12 279.637 66.144 279.453 66.144ZM282.578 66.144C282.09 66.144 281.682 66 281.354 65.712C281.034 65.424 280.874 65.016 280.874 64.488C280.874 63.848 281.158 63.36 281.726 63.024C282.294 62.68 283.202 62.44 284.45 62.304C284.45 62.12 284.43 61.94 284.39 61.764C284.358 61.588 284.298 61.432 284.21 61.296C284.122 61.16 283.998 61.052 283.838 60.972C283.686 60.884 283.49 60.84 283.25 60.84C282.914 60.84 282.598 60.904 282.302 61.032C282.006 61.16 281.742 61.304 281.51 61.464L281.126 60.78C281.398 60.604 281.73 60.436 282.122 60.276C282.514 60.108 282.946 60.024 283.418 60.024C284.13 60.024 284.646 60.244 284.966 60.684C285.286 61.116 285.446 61.696 285.446 62.424V66H284.63L284.546 65.304H284.51C284.23 65.536 283.93 65.736 283.61 65.904C283.29 66.064 282.946 66.144 282.578 66.144ZM282.866 65.352C283.146 65.352 283.41 65.288 283.658 65.16C283.906 65.024 284.17 64.828 284.45 64.572V62.952C283.962 63.016 283.55 63.092 283.214 63.18C282.886 63.268 282.618 63.372 282.41 63.492C282.21 63.612 282.062 63.752 281.966 63.912C281.878 64.064 281.834 64.232 281.834 64.416C281.834 64.752 281.934 64.992 282.134 65.136C282.334 65.28 282.578 65.352 282.866 65.352ZM287.1 66V60.168H287.916L288 61.224H288.036C288.236 60.856 288.476 60.564 288.756 60.348C289.044 60.132 289.356 60.024 289.692 60.024C289.924 60.024 290.132 60.064 290.316 60.144L290.124 61.008C290.028 60.976 289.94 60.952 289.86 60.936C289.78 60.92 289.68 60.912 289.56 60.912C289.312 60.912 289.052 61.012 288.78 61.212C288.516 61.412 288.284 61.76 288.084 62.256V66H287.1ZM248.754 77.144C248.362 77.144 247.994 77.076 247.65 76.94C247.314 76.796 247.018 76.596 246.762 76.34C246.514 76.076 246.318 75.756 246.174 75.38C246.03 75.004 245.958 74.576 245.958 74.096C245.958 73.616 246.03 73.188 246.174 72.812C246.326 72.428 246.522 72.104 246.762 71.84C247.01 71.576 247.29 71.376 247.602 71.24C247.914 71.096 248.238 71.024 248.574 71.024C248.942 71.024 249.27 71.088 249.558 71.216C249.854 71.344 250.098 71.528 250.29 71.768C250.49 72.008 250.642 72.296 250.746 72.632C250.85 72.968 250.902 73.344 250.902 73.76C250.902 73.864 250.898 73.968 250.89 74.072C250.89 74.168 250.882 74.252 250.866 74.324H246.93C246.97 74.948 247.162 75.444 247.506 75.812C247.858 76.172 248.314 76.352 248.874 76.352C249.154 76.352 249.41 76.312 249.642 76.232C249.882 76.144 250.11 76.032 250.326 75.896L250.674 76.544C250.418 76.704 250.134 76.844 249.822 76.964C249.51 77.084 249.154 77.144 248.754 77.144ZM246.918 73.616H250.038C250.038 73.024 249.91 72.576 249.654 72.272C249.406 71.96 249.054 71.804 248.598 71.804C248.39 71.804 248.19 71.844 247.998 71.924C247.814 72.004 247.646 72.124 247.494 72.284C247.342 72.436 247.214 72.624 247.11 72.848C247.014 73.072 246.95 73.328 246.918 73.616ZM252.163 77V71.168H252.979L253.063 72.008H253.099C253.355 71.728 253.631 71.496 253.927 71.312C254.231 71.12 254.559 71.024 254.911 71.024C255.359 71.024 255.707 71.124 255.955 71.324C256.211 71.516 256.399 71.788 256.519 72.14C256.823 71.804 257.127 71.536 257.431 71.336C257.743 71.128 258.079 71.024 258.439 71.024C259.039 71.024 259.483 71.216 259.771 71.6C260.067 71.984 260.215 72.552 260.215 73.304V77H259.231V73.436C259.231 72.884 259.143 72.488 258.967 72.248C258.791 72 258.519 71.876 258.151 71.876C257.711 71.876 257.223 72.176 256.687 72.776V77H255.703V73.436C255.703 72.884 255.615 72.488 255.439 72.248C255.263 72 254.987 71.876 254.611 71.876C254.171 71.876 253.683 72.176 253.147 72.776V77H252.163ZM261.932 79.46V71.168H262.748L262.832 71.84H262.868C263.132 71.616 263.42 71.424 263.732 71.264C264.052 71.104 264.384 71.024 264.728 71.024C265.104 71.024 265.436 71.096 265.724 71.24C266.012 71.376 266.252 71.576 266.444 71.84C266.636 72.096 266.78 72.408 266.876 72.776C266.98 73.136 267.032 73.544 267.032 74C267.032 74.496 266.964 74.94 266.828 75.332C266.692 75.716 266.508 76.044 266.276 76.316C266.044 76.588 265.776 76.796 265.472 76.94C265.168 77.076 264.848 77.144 264.512 77.144C264.24 77.144 263.968 77.084 263.696 76.964C263.432 76.844 263.164 76.68 262.892 76.472L262.916 77.492V79.46H261.932ZM264.344 76.316C264.584 76.316 264.804 76.264 265.004 76.16C265.212 76.048 265.388 75.896 265.532 75.704C265.684 75.504 265.8 75.26 265.88 74.972C265.968 74.684 266.012 74.36 266.012 74C266.012 73.68 265.984 73.388 265.928 73.124C265.872 72.86 265.78 72.636 265.652 72.452C265.532 72.26 265.372 72.112 265.172 72.008C264.98 71.904 264.748 71.852 264.476 71.852C264.228 71.852 263.976 71.92 263.72 72.056C263.472 72.192 263.204 72.388 262.916 72.644V75.704C263.18 75.928 263.436 76.088 263.684 76.184C263.932 76.272 264.152 76.316 264.344 76.316ZM268.408 77V71.168H269.224L269.308 72.224H269.344C269.544 71.856 269.784 71.564 270.064 71.348C270.352 71.132 270.664 71.024 271 71.024C271.232 71.024 271.44 71.064 271.624 71.144L271.432 72.008C271.336 71.976 271.248 71.952 271.168 71.936C271.088 71.92 270.988 71.912 270.868 71.912C270.62 71.912 270.36 72.012 270.088 72.212C269.824 72.412 269.592 72.76 269.392 73.256V77H268.408ZM274.635 77.144C274.243 77.144 273.875 77.076 273.531 76.94C273.195 76.796 272.899 76.596 272.643 76.34C272.395 76.076 272.199 75.756 272.055 75.38C271.911 75.004 271.839 74.576 271.839 74.096C271.839 73.616 271.911 73.188 272.055 72.812C272.207 72.428 272.403 72.104 272.643 71.84C272.891 71.576 273.171 71.376 273.483 71.24C273.795 71.096 274.119 71.024 274.455 71.024C274.823 71.024 275.151 71.088 275.439 71.216C275.735 71.344 275.979 71.528 276.171 71.768C276.371 72.008 276.523 72.296 276.627 72.632C276.731 72.968 276.783 73.344 276.783 73.76C276.783 73.864 276.779 73.968 276.771 74.072C276.771 74.168 276.763 74.252 276.747 74.324H272.811C272.851 74.948 273.043 75.444 273.387 75.812C273.739 76.172 274.195 76.352 274.755 76.352C275.035 76.352 275.291 76.312 275.523 76.232C275.763 76.144 275.991 76.032 276.207 75.896L276.555 76.544C276.299 76.704 276.015 76.844 275.703 76.964C275.391 77.084 275.035 77.144 274.635 77.144ZM272.799 73.616H275.919C275.919 73.024 275.791 72.576 275.535 72.272C275.287 71.96 274.935 71.804 274.479 71.804C274.271 71.804 274.071 71.844 273.879 71.924C273.695 72.004 273.527 72.124 273.375 72.284C273.223 72.436 273.095 72.624 272.991 72.848C272.895 73.072 272.831 73.328 272.799 73.616ZM274.299 70.124L273.795 69.632L275.487 67.628L276.183 68.288L274.299 70.124ZM279.568 77.144C279.152 77.144 278.756 77.068 278.38 76.916C278.004 76.764 277.676 76.572 277.396 76.34L277.888 75.68C278.144 75.888 278.404 76.056 278.668 76.184C278.94 76.312 279.252 76.376 279.604 76.376C279.988 76.376 280.276 76.288 280.468 76.112C280.66 75.936 280.756 75.72 280.756 75.464C280.756 75.312 280.716 75.18 280.636 75.068C280.556 74.956 280.452 74.86 280.324 74.78C280.204 74.692 280.064 74.616 279.904 74.552C279.744 74.488 279.584 74.424 279.424 74.36C279.216 74.288 279.008 74.208 278.8 74.12C278.592 74.024 278.404 73.912 278.236 73.784C278.076 73.648 277.944 73.492 277.84 73.316C277.736 73.14 277.684 72.928 277.684 72.68C277.684 72.448 277.728 72.232 277.816 72.032C277.912 71.824 278.044 71.648 278.212 71.504C278.388 71.352 278.6 71.236 278.848 71.156C279.096 71.068 279.376 71.024 279.688 71.024C280.056 71.024 280.392 71.088 280.696 71.216C281.008 71.344 281.276 71.5 281.5 71.684L281.032 72.308C280.832 72.156 280.624 72.032 280.408 71.936C280.192 71.84 279.956 71.792 279.7 71.792C279.332 71.792 279.06 71.876 278.884 72.044C278.716 72.212 278.632 72.408 278.632 72.632C278.632 72.768 278.668 72.888 278.74 72.992C278.812 73.088 278.908 73.176 279.028 73.256C279.148 73.328 279.284 73.396 279.436 73.46C279.596 73.516 279.76 73.576 279.928 73.64C280.136 73.72 280.344 73.804 280.552 73.892C280.768 73.98 280.96 74.092 281.128 74.228C281.296 74.356 281.432 74.516 281.536 74.708C281.648 74.9 281.704 75.132 281.704 75.404C281.704 75.644 281.656 75.868 281.56 76.076C281.472 76.284 281.336 76.468 281.152 76.628C280.976 76.788 280.752 76.912 280.48 77C280.216 77.096 279.912 77.144 279.568 77.144ZM284.493 77.144C284.181 77.144 283.917 77.096 283.701 77C283.493 76.904 283.321 76.772 283.185 76.604C283.057 76.436 282.965 76.232 282.909 75.992C282.853 75.752 282.825 75.488 282.825 75.2V71.972H281.961V71.228L282.873 71.168L282.993 69.536H283.821V71.168H285.393V71.972H283.821V75.212C283.821 75.572 283.885 75.852 284.013 76.052C284.149 76.244 284.385 76.34 284.721 76.34C284.825 76.34 284.937 76.324 285.057 76.292C285.177 76.26 285.285 76.224 285.381 76.184L285.573 76.928C285.413 76.984 285.237 77.032 285.045 77.072C284.861 77.12 284.677 77.144 284.493 77.144ZM286.532 77V71.168H287.516V77H286.532ZM287.036 69.968C286.844 69.968 286.68 69.908 286.544 69.788C286.416 69.668 286.352 69.516 286.352 69.332C286.352 69.14 286.416 68.988 286.544 68.876C286.68 68.756 286.844 68.696 287.036 68.696C287.228 68.696 287.388 68.756 287.516 68.876C287.652 68.988 287.72 69.14 287.72 69.332C287.72 69.516 287.652 69.668 287.516 69.788C287.388 69.908 287.228 69.968 287.036 69.968ZM289.305 77V71.168H290.121L290.205 72.008H290.241C290.497 71.728 290.773 71.496 291.069 71.312C291.373 71.12 291.701 71.024 292.053 71.024C292.501 71.024 292.849 71.124 293.097 71.324C293.353 71.516 293.541 71.788 293.661 72.14C293.965 71.804 294.269 71.536 294.573 71.336C294.885 71.128 295.221 71.024 295.581 71.024C296.181 71.024 296.625 71.216 296.913 71.6C297.209 71.984 297.357 72.552 297.357 73.304V77H296.373V73.436C296.373 72.884 296.285 72.488 296.109 72.248C295.933 72 295.661 71.876 295.293 71.876C294.853 71.876 294.365 72.176 293.829 72.776V77H292.845V73.436C292.845 72.884 292.757 72.488 292.581 72.248C292.405 72 292.129 71.876 291.753 71.876C291.313 71.876 290.825 72.176 290.289 72.776V77H289.305ZM301.342 77.144C300.982 77.144 300.638 77.076 300.31 76.94C299.99 76.804 299.706 76.608 299.458 76.352C299.21 76.088 299.01 75.768 298.858 75.392C298.714 75.008 298.642 74.576 298.642 74.096C298.642 73.608 298.714 73.176 298.858 72.8C299.01 72.416 299.21 72.092 299.458 71.828C299.706 71.564 299.99 71.364 300.31 71.228C300.638 71.092 300.982 71.024 301.342 71.024C301.702 71.024 302.042 71.092 302.362 71.228C302.69 71.364 302.978 71.564 303.226 71.828C303.474 72.092 303.67 72.416 303.814 72.8C303.966 73.176 304.042 73.608 304.042 74.096C304.042 74.576 303.966 75.008 303.814 75.392C303.67 75.768 303.474 76.088 303.226 76.352C302.978 76.608 302.69 76.804 302.362 76.94C302.042 77.076 301.702 77.144 301.342 77.144ZM301.342 76.328C301.59 76.328 301.818 76.276 302.026 76.172C302.234 76.06 302.41 75.908 302.554 75.716C302.706 75.516 302.822 75.28 302.902 75.008C302.982 74.736 303.022 74.432 303.022 74.096C303.022 73.76 302.982 73.456 302.902 73.184C302.822 72.904 302.706 72.664 302.554 72.464C302.41 72.264 302.234 72.112 302.026 72.008C301.818 71.896 301.59 71.84 301.342 71.84C301.094 71.84 300.866 71.896 300.658 72.008C300.45 72.112 300.27 72.264 300.118 72.464C299.974 72.664 299.862 72.904 299.782 73.184C299.702 73.456 299.662 73.76 299.662 74.096C299.662 74.432 299.702 74.736 299.782 75.008C299.862 75.28 299.974 75.516 300.118 75.716C300.27 75.908 300.45 76.06 300.658 76.172C300.866 76.276 301.094 76.328 301.342 76.328Z" fill="#3E3E3E"/>
<g clip-path="url(#clip3)">
<path d="M152.969 28.8714C153.451 28.8714 153.843 29.1999 153.843 29.6037C153.843 29.9704 154.141 30.2677 154.507 30.2677C154.874 30.2677 155.171 29.9704 155.171 29.6037C155.171 28.684 154.524 27.9033 153.633 27.6392V27.5469C153.633 27.1802 153.336 26.8828 152.969 26.8828C152.602 26.8828 152.305 27.1802 152.305 27.5469V27.6392C151.414 27.9033 150.766 28.684 150.766 29.6037C150.766 30.7398 151.754 31.6641 152.969 31.6641C153.451 31.6641 153.843 31.9925 153.843 32.3963C153.843 32.8 153.451 33.1285 152.969 33.1285C152.487 33.1285 152.094 32.8 152.094 32.3963C152.094 32.0296 151.797 31.7322 151.43 31.7322C151.063 31.7322 150.766 32.0296 150.766 32.3963C150.766 33.3159 151.414 34.0967 152.305 34.3608V34.4531C152.305 34.8198 152.602 35.1172 152.969 35.1172C153.336 35.1172 153.633 34.8198 153.633 34.4531V34.3608C154.524 34.0967 155.171 33.316 155.171 32.3963C155.171 31.2602 154.183 30.3359 152.969 30.3359C152.487 30.3359 152.094 30.0075 152.094 29.6037C152.094 29.2 152.487 28.8714 152.969 28.8714Z" fill="#006583"/>
<path d="M160.938 31C160.938 29.9907 160.751 29.0067 160.384 28.0757C160.249 27.7345 159.863 27.5672 159.522 27.7017C159.181 27.8363 159.014 28.2221 159.148 28.5632C159.454 29.3384 159.609 30.1583 159.609 31C159.609 34.6617 156.63 37.6406 152.969 37.6406C149.307 37.6406 146.328 34.6616 146.328 31C146.328 27.3384 149.307 24.3594 152.969 24.3594C153.805 24.3594 154.621 24.5128 155.392 24.8152C155.733 24.9492 156.119 24.7809 156.253 24.4394C156.387 24.0979 156.218 23.7126 155.877 23.5788C154.95 23.2155 153.972 23.0312 152.969 23.0312C148.575 23.0312 145 26.606 145 31C145 35.394 148.575 38.9688 152.969 38.9688C157.363 38.9688 160.938 35.394 160.938 31Z" fill="#006583"/>
<path d="M171.031 28.8714C171.513 28.8714 171.906 29.1999 171.906 29.6037C171.906 29.9704 172.203 30.2677 172.57 30.2677C172.937 30.2677 173.234 29.9704 173.234 29.6037C173.234 28.684 172.586 27.9033 171.695 27.6392V27.5469C171.695 27.1802 171.398 26.8828 171.031 26.8828C170.664 26.8828 170.367 27.1802 170.367 27.5469V27.6392C169.476 27.9033 168.829 28.684 168.829 29.6037C168.829 30.7398 169.817 31.6641 171.031 31.6641C171.513 31.6641 171.906 31.9925 171.906 32.3963C171.906 32.8 171.513 33.1285 171.031 33.1285C170.549 33.1285 170.157 32.8 170.157 32.3963C170.157 32.0296 169.859 31.7322 169.493 31.7322C169.126 31.7322 168.829 32.0296 168.829 32.3963C168.829 33.3159 169.476 34.0967 170.367 34.3608V34.4531C170.367 34.8198 170.664 35.1172 171.031 35.1172C171.398 35.1172 171.695 34.8198 171.695 34.4531V34.3608C172.586 34.0967 173.234 33.316 173.234 32.3963C173.234 31.2602 172.246 30.3359 171.031 30.3359C170.549 30.3359 170.157 30.0075 170.157 29.6037C170.157 29.2 170.549 28.8714 171.031 28.8714Z" fill="#006583"/>
<path d="M171.031 23.0312C166.637 23.0312 163.062 26.606 163.062 31C163.062 35.394 166.637 38.9688 171.031 38.9688C175.425 38.9688 179 35.394 179 31C179 26.606 175.425 23.0312 171.031 23.0312ZM171.031 37.6406C167.37 37.6406 164.391 34.6617 164.391 31C164.391 27.3383 167.37 24.3594 171.031 24.3594C174.693 24.3594 177.672 27.3383 177.672 31C177.672 34.6617 174.693 37.6406 171.031 37.6406Z" fill="#006583"/>
<path d="M167.685 40.7326C167.426 40.4733 167.005 40.4733 166.746 40.7326C166.487 40.9919 166.487 41.4124 166.746 41.6718L167.012 41.9377H155.384C155.018 41.9377 154.72 42.2351 154.72 42.6018C154.72 42.9685 155.018 43.2658 155.384 43.2658H167.012L166.746 43.5318C166.487 43.7911 166.487 44.2116 166.746 44.471C166.876 44.6006 167.046 44.6655 167.216 44.6655C167.386 44.6655 167.556 44.6006 167.685 44.471L169.085 43.0714C169.344 42.8121 169.344 42.3916 169.085 42.1322L167.685 40.7326Z" fill="#006583"/>
<path d="M156.314 21.2674C156.444 21.397 156.614 21.4619 156.784 21.4619C156.954 21.4619 157.124 21.397 157.253 21.2674C157.513 21.0081 157.513 20.5876 157.253 20.3282L156.988 20.0622H168.615C168.982 20.0622 169.279 19.7649 169.279 19.3982C169.279 19.0315 168.982 18.7341 168.615 18.7341H156.988L157.253 18.4681C157.513 18.2088 157.513 17.7883 157.253 17.529C156.994 17.2697 156.574 17.2697 156.314 17.529L154.915 18.9285C154.655 19.1879 154.655 19.6083 154.915 19.8677L156.314 21.2674Z" fill="#006583"/>
<path d="M157.664 25.3654C157.541 25.4889 157.47 25.6602 157.47 25.8349C157.47 26.0095 157.541 26.1808 157.664 26.3044C157.788 26.4278 157.959 26.4989 158.134 26.4989C158.308 26.4989 158.48 26.4279 158.603 26.3044C158.727 26.1808 158.798 26.0095 158.798 25.8349C158.798 25.6602 158.727 25.4889 158.603 25.3654C158.48 25.2413 158.308 25.1708 158.134 25.1708C157.959 25.1708 157.788 25.2413 157.664 25.3654Z" fill="#006583"/>
</g>
</g>
<defs>
<filter id="filter0_d" x="-12" y="-12" width="121" height="121" filterUnits="userSpaceOnUse" color-interpolation-filters="sRGB">
<feFlood flood-opacity="0" result="BackgroundImageFix"/>
<feColorMatrix in="SourceAlpha" type="matrix" values="0 0 0 0 0 0 0 0 0 0 0 0 0 0 0 0 0 0 127 0"/>
<feMorphology radius="7" operator="erode" in="SourceAlpha" result="effect1_dropShadow"/>
<feOffset/>
<feGaussianBlur stdDeviation="9.5"/>
<feColorMatrix type="matrix" values="0 0 0 0 0 0 0 0 0 0 0 0 0 0 0 0 0 0 0.12 0"/>
<feBlend mode="normal" in2="BackgroundImageFix" result="effect1_dropShadow"/>
<feBlend mode="normal" in="SourceGraphic" in2="effect1_dropShadow" result="shape"/>
</filter>
<filter id="filter1_d" x="101" y="-12" width="121" height="121" filterUnits="userSpaceOnUse" color-interpolation-filters="sRGB">
<feFlood flood-opacity="0" result="BackgroundImageFix"/>
<feColorMatrix in="SourceAlpha" type="matrix" values="0 0 0 0 0 0 0 0 0 0 0 0 0 0 0 0 0 0 127 0"/>
<feMorphology radius="7" operator="erode" in="SourceAlpha" result="effect1_dropShadow"/>
<feOffset/>
<feGaussianBlur stdDeviation="9.5"/>
<feColorMatrix type="matrix" values="0 0 0 0 0 0 0 0 0 0 0 0 0 0 0 0 0 0 0.12 0"/>
<feBlend mode="normal" in2="BackgroundImageFix" result="effect1_dropShadow"/>
<feBlend mode="normal" in="SourceGraphic" in2="effect1_dropShadow" result="shape"/>
</filter>
<filter id="filter2_d" x="327" y="-12" width="121" height="121" filterUnits="userSpaceOnUse" color-interpolation-filters="sRGB">
<feFlood flood-opacity="0" result="BackgroundImageFix"/>
<feColorMatrix in="SourceAlpha" type="matrix" values="0 0 0 0 0 0 0 0 0 0 0 0 0 0 0 0 0 0 127 0"/>
<feMorphology radius="7" operator="erode" in="SourceAlpha" result="effect1_dropShadow"/>
<feOffset/>
<feGaussianBlur stdDeviation="9.5"/>
<feColorMatrix type="matrix" values="0 0 0 0 0 0 0 0 0 0 0 0 0 0 0 0 0 0 0.12 0"/>
<feBlend mode="normal" in2="BackgroundImageFix" result="effect1_dropShadow"/>
<feBlend mode="normal" in="SourceGraphic" in2="effect1_dropShadow" result="shape"/>
</filter>
<filter id="filter3_d" x="214" y="-12" width="121" height="121" filterUnits="userSpaceOnUse" color-interpolation-filters="sRGB">
<feFlood flood-opacity="0" result="BackgroundImageFix"/>
<feColorMatrix in="SourceAlpha" type="matrix" values="0 0 0 0 0 0 0 0 0 0 0 0 0 0 0 0 0 0 127 0"/>
<feMorphology radius="7" operator="erode" in="SourceAlpha" result="effect1_dropShadow"/>
<feOffset/>
<feGaussianBlur stdDeviation="9.5"/>
<feColorMatrix type="matrix" values="0 0 0 0 0 0 0 0 0 0 0 0 0 0 0 0 0 0 0.12 0"/>
<feBlend mode="normal" in2="BackgroundImageFix" result="effect1_dropShadow"/>
<feBlend mode="normal" in="SourceGraphic" in2="effect1_dropShadow" result="shape"/>
</filter>
<clipPath id="clip0">
<rect width="359" height="97" fill="white"/>
</clipPath>
<clipPath id="clip1">
<rect width="33" height="33" fill="white" transform="translate(32 15)"/>
</clipPath>
<clipPath id="clip2">
<rect width="29" height="29" fill="white" transform="translate(261 14)"/>
</clipPath>
<clipPath id="clip3">
<rect width="34" height="34" fill="white" transform="translate(145 14)"/>
</clipPath>
</defs>
</svg>
