<svg width="20" height="20" viewBox="0 0 20 20" fill="none" xmlns="http://www.w3.org/2000/svg">
<path d="M10.4184 6.90361H9.58155C9.21252 6.90361 8.91229 6.60338 8.91229 6.23431C8.91229 5.86529 9.21252 5.56506 9.58155 5.56506H11.2551C11.5787 5.56506 11.8411 5.30272 11.8411 4.97912C11.8411 4.65553 11.5787 4.39319 11.2551 4.39319H10.5858V3.72397C10.5858 3.40037 10.3235 3.13803 9.99991 3.13803C9.67631 3.13803 9.41397 3.40037 9.41397 3.72397V4.40119C8.47706 4.48615 7.74042 5.27568 7.74042 6.23435C7.74042 7.24959 8.56635 8.07552 9.58155 8.07552H10.4184C10.7874 8.07552 11.0877 8.37576 11.0877 8.74478C11.0877 9.1138 10.7875 9.41404 10.4184 9.41404H8.74471C8.42112 9.41404 8.15878 9.67638 8.15878 9.99997C8.15878 10.3236 8.42112 10.5859 8.74471 10.5859H9.41397V11.2552C9.41397 11.5788 9.67631 11.8411 9.99991 11.8411C10.3235 11.8411 10.5858 11.5788 10.5858 11.2552V10.5779C11.5228 10.493 12.2596 9.70349 12.2596 8.74474C12.2596 7.72955 11.4337 6.90361 10.4184 6.90361Z" fill="#555555"/>
<path d="M13.138 13.8073H6.86198C6.53839 13.8073 6.27605 14.0696 6.27605 14.3932C6.27605 14.7168 6.53839 14.9792 6.86198 14.9792H13.138C13.4616 14.9792 13.7239 14.7168 13.7239 14.3932C13.7239 14.0696 13.4616 13.8073 13.138 13.8073Z" fill="#555555"/>
<path d="M16.9036 0H3.09636C2.77276 0 2.51042 0.262343 2.51042 0.585936V17.6881C2.51042 17.8435 2.57218 17.9925 2.68206 18.1024L4.408 19.8284C4.63678 20.0572 5.0078 20.0572 5.23663 19.8284L6.54823 18.5168L7.85979 19.8284C7.96967 19.9382 8.11869 20 8.27412 20C8.42951 20 8.57857 19.9383 8.68846 19.8284L9.99998 18.5168L11.3116 19.8284C11.4215 19.9382 11.5705 20 11.7259 20C11.8813 20 12.0303 19.9382 12.1402 19.8284L13.4518 18.5168L14.7634 19.8284C14.8778 19.9428 15.0277 20 15.1777 20C15.3276 20 15.4776 19.9428 15.592 19.8284L17.3179 18.1024C17.4278 17.9925 17.4896 17.8435 17.4896 17.6881V0.585936C17.4895 0.262343 17.2272 0 16.9036 0ZM15.1777 18.5854L13.8661 17.2738C13.7562 17.1639 13.6071 17.1022 13.4517 17.1022C13.2963 17.1022 13.1473 17.1639 13.0374 17.2738L11.7258 18.5854L10.4142 17.2738C10.1854 17.045 9.81443 17.045 9.5856 17.2738L8.274 18.5854L6.96244 17.2738C6.85256 17.1639 6.70354 17.1022 6.54811 17.1022C6.39272 17.1022 6.2437 17.1639 6.13381 17.2738L4.82221 18.5854L3.68222 17.4454V1.17187H16.3176V17.4454H16.3177L15.1777 18.5854Z" fill="#555555"/>
</svg>
