<svg width="19" height="19" viewBox="0 0 19 19" fill="none" xmlns="http://www.w3.org/2000/svg">
<path d="M15.8086 18.4056H3.19141C2.25017 18.4056 1.48438 17.6399 1.48438 16.6986V7.71738C1.48438 7.38948 1.75019 7.12363 2.07813 7.12363C2.40606 7.12363 2.67188 7.38948 2.67188 7.71738V16.6986C2.67188 16.9851 2.90492 17.2181 3.19141 17.2181H15.8086C16.0951 17.2181 16.3281 16.9851 16.3281 16.6986V7.71738C16.3281 7.38948 16.5939 7.12363 16.9219 7.12363C17.2498 7.12363 17.5156 7.38948 17.5156 7.71738V16.6986C17.5156 17.6398 16.7499 18.4056 15.8086 18.4056Z" fill="#00556E"/>
<path d="M18.4062 9.79529C18.2543 9.79529 18.1024 9.73733 17.9864 9.62136L10.6021 2.23708C9.99441 1.62938 9.00563 1.62938 8.39793 2.23708L1.01361 9.6214C0.78175 9.8533 0.405795 9.8533 0.173936 9.6214C-0.0579608 9.38954 -0.0579608 9.01358 0.173936 8.78172L7.55825 1.39737C8.62893 0.326691 10.3711 0.326691 11.4418 1.39737L18.8261 8.78169C19.058 9.01358 19.058 9.3895 18.8261 9.62136C18.7102 9.73733 18.5582 9.79529 18.4062 9.79529Z" fill="#00556E"/>
<path d="M11.875 18.4056H7.12501C6.79707 18.4056 6.53126 18.1397 6.53126 17.8118V12.5423C6.53126 11.5192 7.36362 10.6868 8.38673 10.6868H10.6133C11.6364 10.6868 12.4688 11.5192 12.4688 12.5423V17.8118C12.4688 18.1397 12.2029 18.4056 11.875 18.4056ZM7.71876 17.2181H11.2813V12.5423C11.2813 12.174 10.9816 11.8743 10.6133 11.8743H8.38673C8.01842 11.8743 7.71876 12.174 7.71876 12.5423V17.2181Z" fill="#00556E"/>
</svg>
