<svg width="30" height="30" viewBox="0 0 30 30" fill="none" xmlns="http://www.w3.org/2000/svg">
<g clip-path="url(#clip0)">
<path d="M21.6556 5.02898C21.4272 4.79987 21.0562 4.79987 20.8271 5.02898C20.5984 5.25764 20.5984 5.62865 20.8271 5.85776C20.8335 5.86417 20.8406 5.87058 20.847 5.87699C21.0772 6.08688 21.4336 6.08047 21.6556 5.85776C21.8737 5.63964 21.8843 5.29288 21.6867 5.06309C21.6774 5.05141 21.6668 5.0402 21.6556 5.02898Z" fill="#00556E"/>
<path d="M28.2854 1.71387C26.0002 -0.571289 22.2825 -0.571289 19.9974 1.71387L15.4133 6.29768C13.7597 7.95158 13.2568 10.4301 14.1014 12.5828L12.5821 14.1023C10.4292 13.2578 7.95065 13.7606 6.29698 15.4143L1.71272 19.9983C-0.572207 22.2832 -0.572207 26.0012 1.71272 28.2864C3.99787 30.5713 7.71559 30.5713 10.0007 28.2864L14.5848 23.7023C16.2387 22.0484 16.7413 19.5699 15.8967 17.4172L17.416 15.8979C19.5861 16.7491 22.0596 16.2275 23.7011 14.5857L28.2854 10.0017C30.5703 7.71675 30.5703 3.99879 28.2854 1.71387ZM13.756 22.8735L9.17196 27.4574C7.33977 29.2898 4.37415 29.29 2.54172 27.4574C0.7093 25.6252 0.709071 22.6598 2.54172 20.8271L7.12576 16.2431C8.32258 15.046 10.0596 14.6031 11.6549 15.0295L10.0252 16.6592C9.3997 16.7482 8.81834 17.0366 8.36859 17.4866L3.78524 22.0704C2.64129 23.2137 2.64106 25.0706 3.78501 26.2138C4.92827 27.3578 6.78519 27.3582 7.92868 26.2141L12.5127 21.6307C12.9625 21.1807 13.2511 20.5994 13.3399 19.9741L14.9698 18.3444C15.3959 19.9397 14.953 21.6765 13.756 22.8735ZM9.1976 20.801C9.66795 21.2718 10.312 21.525 11.0035 21.4822L7.09967 25.3853C6.4144 26.071 5.29952 26.0712 4.61379 25.3851C3.92829 24.7 3.92783 23.5851 4.61402 22.8994L8.51713 18.9956C8.47387 19.6921 8.73091 20.3348 9.1976 20.801ZM12.3649 19.2915L11.6837 19.9725C11.2278 20.4286 10.4846 20.4309 10.0264 19.9722C9.5693 19.5158 9.5693 18.7724 10.0266 18.3154L18.3144 10.0275C18.7703 9.57161 19.5135 9.56909 19.9717 10.0278C20.4288 10.4844 20.4288 11.2276 19.9715 11.6846L12.3649 19.2915ZM22.8726 13.7569C21.6755 14.9538 19.9388 15.3969 18.3435 14.9705L19.9731 13.3408C20.5982 13.252 21.1793 12.9636 21.6291 12.5141C21.6293 12.5139 21.6295 12.5137 21.6295 12.5134L26.2129 7.92961C27.3566 6.78658 27.3573 4.92966 26.2131 3.78616C25.268 2.84042 23.8034 2.65457 22.6515 3.33412C22.3727 3.49846 22.2802 3.8578 22.4446 4.13658C22.6091 4.41536 22.9685 4.50806 23.247 4.34372C23.9382 3.93585 24.8172 4.04732 25.3843 4.61494C26.0701 5.30022 26.0703 6.4151 25.3843 7.10083L21.4812 11.0044C21.5242 10.3082 21.2674 9.66545 20.8005 9.19899C20.3585 8.75656 19.7701 8.5128 19.1432 8.5128C19.0935 8.5128 19.0441 8.51509 18.9949 8.51807L19.9976 7.51534C20.2265 7.28645 20.2265 6.91544 19.9976 6.68655C19.7687 6.45767 19.3977 6.45767 19.1688 6.68655L17.4856 8.36952C17.0356 8.8195 16.7473 9.40086 16.6582 10.0262L15.0286 11.6558C14.6022 10.0605 15.0453 8.32352 16.2421 7.12669L20.8261 2.54265C22.6583 0.710449 25.624 0.709991 27.4566 2.54265C29.2888 4.37508 29.289 7.34047 27.4566 9.17313L22.8726 13.7569Z" fill="#00556E"/>
<path d="M9.61325 9.61304C9.8419 9.38439 9.8419 9.01314 9.61325 8.78426L7.12668 6.29769C6.8978 6.06881 6.52655 6.06881 6.29767 6.29769C6.06879 6.52657 6.06879 6.89759 6.29767 7.12647L8.78424 9.61304C9.01312 9.84193 9.38437 9.84215 9.61325 9.61304Z" fill="#00556E"/>
<path d="M3.12515 12.1284C3.12515 12.4521 3.38745 12.7144 3.71108 12.7144H7.22739C7.55103 12.7144 7.81333 12.4521 7.81333 12.1284C7.81333 11.8048 7.55103 11.5423 7.22739 11.5423H3.71108C3.38745 11.5423 3.12515 11.8048 3.12515 12.1284Z" fill="#00556E"/>
<path d="M12.7144 7.22741V3.7111C12.7144 3.38746 12.4521 3.12493 12.1284 3.12493C11.8048 3.12493 11.5423 3.38746 11.5423 3.7111V7.22741C11.5423 7.55105 11.8048 7.81335 12.1284 7.81335C12.4521 7.81335 12.7144 7.55105 12.7144 7.22741Z" fill="#00556E"/>
<path d="M20.3869 20.3867C20.158 20.6156 20.158 20.9869 20.3869 21.2157L22.8735 23.7023C23.1024 23.9312 23.4734 23.9312 23.7023 23.7023C23.9312 23.4734 23.9312 23.1024 23.7023 22.8735L21.2157 20.3867C20.9868 20.1581 20.6156 20.1581 20.3869 20.3867Z" fill="#00556E"/>
<path d="M17.3442 22.7726V26.2889C17.3442 26.6125 17.6065 26.8751 17.9301 26.8751C18.254 26.8751 18.5163 26.6125 18.5163 26.2889V22.7726C18.5163 22.449 18.254 22.1867 17.9301 22.1867C17.6065 22.1867 17.3442 22.449 17.3442 22.7726Z" fill="#00556E"/>
<path d="M26.875 17.9301C26.875 17.6065 26.6125 17.3442 26.2889 17.3442H22.7728C22.4489 17.3442 22.1866 17.6065 22.1866 17.9301C22.1866 18.2538 22.4489 18.5163 22.7728 18.5163H26.2889C26.6125 18.5163 26.875 18.2538 26.875 17.9301Z" fill="#00556E"/>
</g>
<defs>
<clipPath id="clip0">
<rect width="30" height="30" fill="white"/>
</clipPath>
</defs>
</svg>
