<svg width="31" height="31" viewBox="0 0 31 31" fill="none" xmlns="http://www.w3.org/2000/svg">
<path d="M0 7.62083V3.35833C0 2.21876 0.927094 1.29166 2.06667 1.29166H6.32916C6.61449 1.29166 6.84583 1.523 6.84583 1.80833C6.84583 2.09366 6.61449 2.325 6.32916 2.325H2.06667C1.49691 2.325 1.03333 2.78858 1.03333 3.35833V7.62083C1.03333 7.90616 0.801996 8.1375 0.516667 8.1375C0.231337 8.1375 0 7.90616 0 7.62083ZM28.9333 1.29166H24.6708C24.3855 1.29166 24.1542 1.523 24.1542 1.80833C24.1542 2.09366 24.3855 2.325 24.6708 2.325H28.9333C29.5031 2.325 29.9667 2.78858 29.9667 3.35833V7.62083C29.9667 7.90616 30.198 8.1375 30.4833 8.1375C30.7687 8.1375 31 7.90616 31 7.62083V3.35833C31 2.21876 30.0729 1.29166 28.9333 1.29166ZM6.32916 28.675H2.06667C1.49691 28.675 1.03333 28.2114 1.03333 27.6417V23.3792C1.03333 23.0938 0.801996 22.8625 0.516667 22.8625C0.231337 22.8625 0 23.0938 0 23.3792V27.6417C0 28.7812 0.927094 29.7083 2.06667 29.7083H6.32916C6.61449 29.7083 6.84583 29.477 6.84583 29.1917C6.84583 28.9063 6.61449 28.675 6.32916 28.675ZM30.4833 22.8625C30.198 22.8625 29.9667 23.0938 29.9667 23.3792V27.6417C29.9667 28.2114 29.5031 28.675 28.9333 28.675H24.6708C24.3855 28.675 24.1542 28.9063 24.1542 29.1917C24.1542 29.477 24.3855 29.7083 24.6708 29.7083H28.9333C30.0729 29.7083 31 28.7812 31 27.6417V23.3792C31 23.0938 30.7687 22.8625 30.4833 22.8625ZM31 13.5625C31 13.8478 30.7687 14.0792 30.4833 14.0792H0.516667C0.231337 14.0792 0 13.8478 0 13.5625C0 13.2772 0.231337 13.0458 0.516667 13.0458H4.13333V7.23333C4.13333 6.948 4.36467 6.71666 4.65 6.71666H7.75C8.03533 6.71666 8.26666 6.948 8.26666 7.23333V13.0458H10.3333V7.23333C10.3333 6.948 10.5647 6.71666 10.85 6.71666H13.95C14.2353 6.71666 14.4667 6.948 14.4667 7.23333V13.0458H16.5333V7.23333C16.5333 6.948 16.7647 6.71666 17.05 6.71666H20.15C20.4353 6.71666 20.6667 6.948 20.6667 7.23333V13.0458H22.7333V7.23333C22.7333 6.948 22.9647 6.71666 23.25 6.71666H26.35C26.6353 6.71666 26.8667 6.948 26.8667 7.23333V13.0458H30.4833C30.7687 13.0458 31 13.2772 31 13.5625ZM23.7667 13.0458H25.8333V7.75H23.7667V13.0458ZM17.5667 13.0458H19.6333V7.75H17.5667V13.0458ZM11.3667 13.0458H13.4333V7.75H11.3667V13.0458ZM5.16667 13.0458H7.23333V7.75H5.16667V13.0458ZM8.26666 16.1458V23.7667C8.26666 24.052 8.03533 24.2833 7.75 24.2833H4.65C4.36467 24.2833 4.13333 24.052 4.13333 23.7667V16.1458C4.13333 15.8605 4.36467 15.6292 4.65 15.6292H7.75C8.03533 15.6292 8.26666 15.8605 8.26666 16.1458ZM7.23333 16.6625H5.16667V23.25H7.23333V16.6625ZM10.3333 20.5375V16.1458C10.3333 15.8605 10.5647 15.6292 10.85 15.6292H13.95C14.2353 15.6292 14.4667 15.8605 14.4667 16.1458V20.5375C14.4667 20.8228 14.2353 21.0542 13.95 21.0542H10.85C10.5647 21.0542 10.3333 20.8228 10.3333 20.5375ZM11.3667 20.0208H13.4333V16.6625H11.3667V20.0208ZM20.6667 16.1458V20.5375C20.6667 20.8228 20.4353 21.0542 20.15 21.0542H17.05C16.7647 21.0542 16.5333 20.8228 16.5333 20.5375V16.1458C16.5333 15.8605 16.7647 15.6292 17.05 15.6292H20.15C20.4353 15.6292 20.6667 15.8605 20.6667 16.1458ZM19.6333 16.6625H17.5667V20.0208H19.6333V16.6625ZM26.35 24.2833H23.25C22.9647 24.2833 22.7333 24.052 22.7333 23.7667V16.1458C22.7333 15.8605 22.9647 15.6292 23.25 15.6292H26.35C26.6353 15.6292 26.8667 15.8605 26.8667 16.1458V23.7667C26.8667 24.052 26.6353 24.2833 26.35 24.2833ZM25.8333 16.6625H23.7667V23.25H25.8333V16.6625ZM16.5333 23.25H10.85C10.5647 23.25 10.3333 23.4813 10.3333 23.7667C10.3333 24.052 10.5647 24.2833 10.85 24.2833H16.5333C16.8187 24.2833 17.05 24.052 17.05 23.7667C17.05 23.4813 16.8187 23.25 16.5333 23.25ZM20.0854 23.25H19.1167C18.8313 23.25 18.6 23.4813 18.6 23.7667C18.6 24.052 18.8313 24.2833 19.1167 24.2833H20.0854C20.3707 24.2833 20.6021 24.052 20.6021 23.7667C20.6021 23.4813 20.3707 23.25 20.0854 23.25Z" fill="#00556E"/>
</svg>
