<svg width="20" height="20" viewBox="0 0 20 20" fill="none" xmlns="http://www.w3.org/2000/svg">
<circle cx="10" cy="10" r="10" fill="#FFB800"/>
<path d="M10 3C6.14038 3 3 6.14038 3 10C3 13.8596 6.14038 17 10 17C13.8596 17 17 13.8596 17 10C17 6.14038 13.8596 3 10 3ZM10 16.125C6.6225 16.125 3.875 13.3775 3.875 10C3.875 6.6225 6.6225 3.875 10 3.875C13.3775 3.875 16.125 6.6225 16.125 10C16.125 13.3775 13.3775 16.125 10 16.125Z" fill="white"/>
<path d="M10 9.5625C9.28863 9.5625 8.6875 9.16175 8.6875 8.6875C8.6875 8.21325 9.28863 7.8125 10 7.8125C10.4025 7.8125 10.7753 7.9385 11.022 8.15725C11.2023 8.31737 11.4779 8.3025 11.6397 8.1205C11.8007 7.94025 11.7841 7.66375 11.603 7.50275C11.2967 7.23062 10.8855 7.04687 10.4375 6.97425V6.5C10.4375 6.2585 10.2415 6.0625 10 6.0625C9.7585 6.0625 9.5625 6.2585 9.5625 6.5V6.9725C8.565 7.13525 7.8125 7.84225 7.8125 8.6875C7.8125 9.65263 8.79425 10.4375 10 10.4375C10.7114 10.4375 11.3125 10.8383 11.3125 11.3125C11.3125 11.7867 10.7114 12.1875 10 12.1875C9.5975 12.1875 9.22475 12.0615 8.978 11.8428C8.79775 11.6817 8.52125 11.6975 8.36025 11.8795C8.19925 12.0597 8.21588 12.3363 8.397 12.4973C8.70325 12.7703 9.1145 12.9531 9.5625 13.0266V13.5C9.5625 13.7415 9.7585 13.9375 10 13.9375C10.2415 13.9375 10.4375 13.7415 10.4375 13.5V13.0275C11.435 12.8647 12.1875 12.1578 12.1875 11.3125C12.1875 10.3474 11.2057 9.5625 10 9.5625Z" fill="white"/>
</svg>
