<svg width="40" height="40" viewBox="0 0 40 40" fill="none" xmlns="http://www.w3.org/2000/svg">
<path d="M33.0081 21.1416C32.6866 21.1416 32.4259 21.4023 32.4259 21.7237C32.4259 22.1313 32.0944 22.4629 31.6868 22.4629C31.2793 22.4629 30.9477 22.1313 30.9477 21.7237C30.9477 21.4022 30.687 21.1416 30.3656 21.1416C30.0441 21.1416 29.7834 21.4023 29.7834 21.7237C29.7834 22.7733 30.6374 23.6271 31.6868 23.6271C32.7363 23.6271 33.5902 22.7732 33.5902 21.7237C33.5902 21.4021 33.3295 21.1416 33.0081 21.1416Z" fill="#00556E"/>
<path d="M38.4722 21.2367L36.8337 20.7119C36.6239 20.6446 36.4585 20.4771 36.3914 20.2637C36.0461 19.1659 35.525 18.1352 34.8426 17.2002C34.5316 16.774 34.1857 16.367 33.8079 15.9796C34.0496 14.9192 34.181 13.7191 34.164 12.6823C34.1396 11.1991 33.8432 10.3292 33.2579 10.0227C32.9427 9.85734 31.9833 9.35515 26.7905 11.7322C26.6676 11.7884 26.5527 11.8577 26.4464 11.9371C26.0963 11.843 25.7385 11.756 25.3785 11.6779C25.3352 11.6684 25.2905 11.6601 25.2468 11.6509C25.6676 10.7316 25.9133 9.73328 25.9595 8.70265C25.9738 8.3814 25.7252 8.10937 25.4039 8.09507C25.0835 8.07914 24.8106 8.32929 24.7963 8.65054C24.7205 10.3452 24.0175 11.9396 22.817 13.1402C22.0998 13.8574 21.2599 14.3784 20.3648 14.7066C18.8126 14.4887 17.2315 14.4887 15.6792 14.7066C14.7841 14.3784 13.9443 13.8574 13.227 13.1402C11.9462 11.8594 11.2409 10.1565 11.2409 8.34515C11.2409 6.53375 11.9462 4.83093 13.227 3.55015C14.5078 2.26929 16.2108 1.5639 18.022 1.5639C19.8333 1.5639 21.5363 2.26929 22.817 3.55015C23.3317 4.06484 23.757 4.65218 24.0812 5.2957C24.2258 5.58289 24.5759 5.69851 24.863 5.55382C25.1502 5.40929 25.2657 5.05921 25.1211 4.77211C24.7412 4.0175 24.243 3.32945 23.6404 2.72679C22.1397 1.22609 20.1444 0.399605 18.0221 0.399605C15.8998 0.399605 13.9045 1.22609 12.4038 2.72679C10.9031 4.22757 10.0766 6.22281 10.0766 8.34507C10.0766 10.4673 10.9031 12.4627 12.4038 13.9634C12.8367 14.3962 13.3077 14.7685 13.8058 15.0804C13.8059 15.0804 13.8061 15.0803 13.8062 15.0803C13.4443 15.1744 13.0851 15.28 12.7298 15.3987C12.4249 15.5007 12.2604 15.8305 12.3623 16.1355C12.4642 16.4404 12.7941 16.6049 13.099 16.503C16.2737 15.4417 19.7705 15.4417 22.9452 16.503C23.0065 16.5235 23.0687 16.5332 23.1298 16.5332C23.3734 16.5332 23.6004 16.3791 23.6819 16.1355C23.7838 15.8305 23.6193 15.5007 23.3144 15.3987C22.9591 15.28 22.5999 15.1743 22.238 15.0803C22.2381 15.0803 22.2383 15.0804 22.2384 15.0804C22.7366 14.7685 23.2075 14.3962 23.6404 13.9634C24.0234 13.5804 24.3614 13.1622 24.6549 12.7177C24.8154 12.7489 24.9747 12.7816 25.1316 12.8156C25.3407 12.861 25.5488 12.9098 25.7551 12.9609C25.7486 12.9862 25.742 13.0115 25.7366 13.0372C25.4527 14.3844 25.4711 15.576 25.7913 16.5786C26.0791 17.4798 26.5986 18.2098 27.3351 18.7487C28.2031 19.3837 29.2511 19.658 30.2004 19.658C30.9148 19.658 31.5735 19.5025 32.0573 19.2285C32.6045 18.9186 33.0629 18.2655 33.4258 17.2851C33.5935 17.4809 33.7525 17.6814 33.9023 17.8867C34.5099 18.7191 34.9738 19.6364 35.2809 20.6131C35.4613 21.1868 35.9091 21.6382 36.4788 21.8208L38.1172 22.3456C38.5471 22.4834 38.8359 22.8791 38.8359 23.3305V26.0473C38.8359 26.4987 38.5471 26.8944 38.1172 27.0321L35.4774 27.8777C35.0551 28.013 34.6977 28.3033 34.471 28.695C33.4339 30.4873 31.8034 31.9705 29.6244 33.1034C29.3727 33.2345 29.1983 33.4688 29.1458 33.7464L28.3003 38.2232C28.277 38.3466 28.1689 38.436 28.0434 38.436H25.2944C25.1688 38.436 25.0608 38.3465 25.0374 38.2232L24.5691 35.7491C24.477 35.2623 24.0204 34.9389 23.529 35.0134C22.3448 35.1924 21.1247 35.2831 19.9026 35.2831C18.9934 35.2831 18.0958 35.2324 17.2346 35.1323C16.7584 35.0776 16.3148 35.4022 16.2259 35.8723L15.7809 38.2232C15.7575 38.3466 15.6495 38.436 15.5239 38.436H12.7749C12.6494 38.436 12.5413 38.3465 12.5177 38.2213L11.7036 33.993C11.6512 33.7206 11.4801 33.489 11.2339 33.3575C7.51953 31.3746 5.55625 28.0618 5.55625 23.7774C5.55625 21.6127 6.02984 19.6986 6.96383 18.088C7.83539 16.5849 9.10836 15.3422 10.7473 14.3941C11.0256 14.2331 11.1207 13.877 10.9598 13.5987C10.7988 13.3204 10.4427 13.2255 10.1644 13.3862C6.98633 15.2247 5.06953 18.0609 4.5418 21.6633V21.6632C4.48578 21.6581 4.42969 21.6533 4.37383 21.6475C4.38398 21.2588 4.31367 20.8666 4.16055 20.486C3.82281 19.6465 3.12906 19.0405 2.39305 18.9423C1.81305 18.8647 1.26109 19.1109 0.878047 19.617C0.322656 20.3509 0.413203 20.9317 0.586875 21.2897C0.880078 21.8938 1.63375 22.3212 2.88445 22.5898C2.85008 22.6413 2.81227 22.693 2.77086 22.745C2.03187 23.6718 1.16125 23.8767 0.595937 23.896C0.265 23.9072 0 24.1729 0 24.5041V24.5069C0 24.8335 0.257734 25.0999 0.584062 25.1148C0.625859 25.1168 0.669531 25.1178 0.715 25.1178C1.43031 25.1178 2.57836 24.854 3.68133 23.4709C3.85547 23.2527 3.99734 23.0223 4.10641 22.7844C4.21625 22.7968 4.3218 22.8074 4.42289 22.8168C4.42289 22.8166 4.42289 22.8164 4.42297 22.8162C4.40312 23.1316 4.39211 23.4517 4.39211 23.7774C4.39211 26.2015 4.97 28.3628 6.10961 30.2016C7.16039 31.897 8.66484 33.2851 10.5827 34.329L11.3741 38.4396C11.5013 39.1121 12.0905 39.6002 12.7749 39.6002H15.5239C16.2084 39.6002 16.7975 39.1121 16.9248 38.4396L17.3271 36.314C18.1627 36.4025 19.0279 36.4473 19.9025 36.4473C21.1025 36.4473 22.3011 36.3638 23.4692 36.1987L23.8934 38.4398C24.0207 39.1123 24.6098 39.6003 25.2942 39.6003H28.0432C28.7277 39.6003 29.3168 39.1122 29.4441 38.4395L30.2673 34.0808C32.593 32.851 34.3459 31.2355 35.4786 29.278C35.5602 29.137 35.6859 29.0334 35.8325 28.9865L38.4722 28.1409C39.386 27.848 40 27.0067 40 26.0471V23.3303C40 22.3708 39.386 21.5294 38.4722 21.2367ZM32.9123 14.3182C32.6883 16.2343 32.0873 17.8734 31.4834 18.2154C30.797 18.6042 29.2122 18.6793 28.0223 17.8089C26.8311 16.9375 26.4346 15.3705 26.8756 13.2772C26.8756 13.2771 26.8756 13.2771 26.8756 13.2771C26.9199 13.0669 27.0693 12.885 27.2752 12.7908C30.1895 11.4567 31.8698 11.0204 32.494 11.0204C32.5882 11.0204 32.6584 11.0303 32.7051 11.0486C32.8926 11.2484 33.1385 12.3844 32.9123 14.3182ZM1.63445 20.7813C1.57422 20.6571 1.71641 20.4387 1.80656 20.3195C1.94945 20.1308 2.08109 20.0922 2.18055 20.0922C2.20156 20.0922 2.22117 20.0939 2.23914 20.0963C2.5068 20.132 2.8818 20.4266 3.08047 20.9204C3.12727 21.0366 3.18805 21.2292 3.20227 21.4694C2.39641 21.3024 1.77031 21.0617 1.63445 20.7813Z" fill="#00556E"/>
<path d="M18.5873 7.67789V5.59476C19.3057 5.64609 19.5726 5.97445 19.8188 5.97445C20.1267 5.97445 20.2704 5.58453 20.2704 5.38953C20.2704 4.88664 19.2851 4.67117 18.5873 4.65062V4.37343C18.5873 4.25031 18.4334 4.13742 18.2794 4.13742C18.1049 4.13742 17.9818 4.25031 17.9818 4.37343V4.67101C17.0069 4.77367 16.0319 5.28679 16.0319 6.57984C16.0319 7.89343 17.0582 8.26289 17.9818 8.59125V11.0029C16.935 10.9208 16.658 10.2024 16.3193 10.2024C16.0627 10.2024 15.8473 10.5411 15.8473 10.7874C15.8473 11.2902 16.7093 11.9778 17.9818 11.9984V12.3165C17.9818 12.4396 18.105 12.5525 18.2794 12.5525C18.4334 12.5525 18.5873 12.4396 18.5873 12.3165V11.9676C19.6957 11.8136 20.4551 11.1158 20.4551 9.85351C20.4551 8.45789 19.4801 8.00625 18.5873 7.67789ZM18.0434 7.48296C17.4994 7.27773 17.0582 7.06226 17.0582 6.47734C17.0582 5.94367 17.4687 5.6871 18.0434 5.61531V7.48296ZM18.5257 10.9823V8.81703C19.0285 9.0325 19.4287 9.31984 19.4287 9.96632C19.4287 10.5514 19.0798 10.8798 18.5257 10.9823Z" fill="#00556E"/>
</svg>
