<svg width="37" height="37" viewBox="0 0 37 37" fill="none" xmlns="http://www.w3.org/2000/svg">
<g clip-path="url(#clip0)">
<path d="M30.8248 20.5187L25.3002 11.8581C26.083 11.4468 26.6184 10.6259 26.6184 9.68194C26.6184 8.6487 25.977 7.76296 25.0717 7.40038L26.7453 1.54911C26.8175 1.29667 26.7471 1.02501 26.5615 0.839346C25.4482 -0.273901 23.6368 -0.273901 22.5235 0.839346C22.2572 1.10566 21.9032 1.2523 21.5266 1.2523C21.15 1.2523 20.7959 1.10566 20.5279 0.837611L20.5244 0.83407C19.415 -0.275419 17.6068 -0.278527 16.493 0.827494L16.4722 0.848163C15.9225 1.39402 15.0296 1.39243 14.4818 0.844622L14.4765 0.839346C13.3632 -0.273901 11.5519 -0.273901 10.4385 0.839346C10.2528 1.02515 10.1825 1.29703 10.2548 1.54962L11.9321 7.399C11.0248 7.76064 10.3817 8.64732 10.3817 9.68201C10.3817 10.626 10.917 11.4468 11.6999 11.8582L6.17518 20.5187C4.03786 23.8691 3.90243 27.9499 5.81289 31.4347C7.72335 34.9195 11.2365 37 15.2107 37H21.7892C25.7633 37 29.2765 34.9195 31.187 31.4347C33.0975 27.9499 32.9621 23.8691 30.8248 20.5187ZM13.4544 1.86139L13.4597 1.86666C14.5692 2.97608 16.3774 2.97912 17.4911 1.87324L17.5119 1.85257C18.0616 1.30672 18.9545 1.30831 19.5039 1.85777L19.5075 1.86132C20.6208 2.97456 22.4322 2.97456 23.5455 1.86132C23.9985 1.40833 24.6856 1.32861 25.2209 1.62217L23.6186 7.22476H13.3858L11.7793 1.6221C12.3147 1.32861 13.0015 1.40847 13.4544 1.86139ZM29.9196 30.7399C28.2668 33.7547 25.2274 35.5547 21.7893 35.5547H15.2108C11.7726 35.5547 8.73325 33.7548 7.08043 30.7399C5.42762 27.7251 5.54477 24.1947 7.3938 21.296L13.235 12.1391H15.2479C15.647 12.1391 15.9706 11.8156 15.9706 11.4164C15.9706 11.0173 15.647 10.6937 15.2479 10.6937H12.8388C12.2809 10.6937 11.8271 10.2399 11.8271 9.68194C11.8271 9.12402 12.2809 8.67016 12.8388 8.67016H12.8412H24.1612C24.7191 8.67016 25.1729 9.12402 25.1729 9.68194C25.1729 10.2399 24.7191 10.6937 24.1612 10.6937H21.7522C21.353 10.6937 21.0295 11.0173 21.0295 11.4164C21.0295 11.8156 21.353 12.1391 21.7522 12.1391H23.765L29.6063 21.296C31.4553 24.1946 31.5725 27.725 29.9196 30.7399Z" fill="#00556E"/>
<path d="M19.7742 23.6019C19.5928 23.5378 19.4078 23.4711 19.2227 23.4017V20.1263C19.7127 20.2705 20.04 20.5043 20.0538 20.5144C20.3718 20.7525 20.8228 20.6894 21.063 20.3723C21.304 20.0542 21.2415 19.6009 20.9234 19.3598C20.881 19.3277 20.209 18.8289 19.2227 18.64V17.9208C19.2227 17.5216 18.8992 17.1981 18.5 17.1981C18.1009 17.1981 17.7773 17.5216 17.7773 17.9208V18.6348C17.6549 18.6583 17.5308 18.688 17.4051 18.7258C16.388 19.0314 15.6277 19.9013 15.4209 20.9959C15.2322 21.9954 15.5524 22.9594 16.2566 23.5117C16.6388 23.8114 17.1163 24.0851 17.7773 24.3757V28.5671C17.2082 28.5311 16.8275 28.4016 16.1928 27.9864C15.8589 27.7678 15.4109 27.8615 15.1924 28.1956C14.9738 28.5296 15.0675 28.9774 15.4015 29.196C16.327 29.8014 16.9537 29.9729 17.7773 30.0134V30.7608C17.7773 31.1599 18.1009 31.4835 18.5 31.4835C18.8992 31.4835 19.2227 31.1599 19.2227 30.7608V29.9383C20.7703 29.5994 21.6754 28.308 21.8785 27.0999C22.144 25.5206 21.318 24.1475 19.7742 23.6019ZM17.1487 22.3743C16.8709 22.1564 16.7531 21.7309 16.8412 21.264C16.9223 20.8346 17.2113 20.3168 17.7773 20.1252V22.7719C17.5397 22.6452 17.3253 22.5128 17.1487 22.3743ZM20.4531 26.8602C20.349 27.4792 19.9312 28.1357 19.2227 28.4258V24.9396C19.2462 24.948 19.2686 24.9561 19.2924 24.9646C20.5881 25.4226 20.5084 26.5313 20.4531 26.8602Z" fill="#00556E"/>
<path d="M18.5 12.1391C18.6901 12.1391 18.8766 12.0618 19.011 11.9274C19.1454 11.793 19.2227 11.6065 19.2227 11.4164C19.2227 11.2264 19.1454 11.0399 19.011 10.9055C18.8766 10.7711 18.6901 10.6937 18.5 10.6937C18.31 10.6937 18.1235 10.7711 17.9891 10.9055C17.8547 11.0399 17.7773 11.2264 17.7773 11.4164C17.7773 11.6065 17.8547 11.793 17.9891 11.9274C18.1235 12.0618 18.3099 12.1391 18.5 12.1391Z" fill="#00556E"/>
</g>
<defs>
<clipPath id="clip0">
<rect width="37" height="37" fill="white"/>
</clipPath>
</defs>
</svg>
