<svg width="35" height="35" viewBox="0 0 35 35" fill="none" xmlns="http://www.w3.org/2000/svg">
<g clip-path="url(#clip0)">
<path d="M34.0886 25.0512C33.4357 24.0918 32.3282 23.8575 31.125 24.4236L30.4874 24.7044C31.4928 22.5613 31.6176 20.1724 31.117 17.9158C30.5422 15.3241 29.1538 12.8134 26.9903 10.4534C26.7991 10.2447 26.4748 10.2307 26.2661 10.422C26.0574 10.6133 26.0433 10.9375 26.2346 11.1463C28.2749 13.3718 29.5808 15.7241 30.1162 18.1378C30.6801 20.6803 30.352 23.3023 28.913 25.3976L22.5322 28.2071L22.5375 27.4864C22.5376 27.4682 22.5368 27.45 22.5349 27.4319C22.3876 25.9508 21.2554 24.7707 19.7817 24.5622C19.7773 24.5615 19.7729 24.561 19.7685 24.5605L14.0973 23.9075C11.9166 23.5971 11.355 22.2903 8.40156 21.5451C8.19751 19.8136 8.46951 17.97 9.21504 16.1217C10.3378 13.3383 12.5344 10.634 15.5796 8.28016C16.7145 9.08489 21.7781 9.18504 22.9113 8.14693C23.4918 8.58778 24.0458 9.0421 24.5619 9.50195C24.6596 9.58904 24.7814 9.63183 24.9028 9.63183C25.0439 9.63183 25.1844 9.57393 25.2856 9.46025C25.474 9.24888 25.4552 8.92486 25.2439 8.73653C24.6781 8.23252 24.0696 7.7352 23.4313 7.25457C23.5809 6.62033 23.3716 5.87802 22.8192 5.43614C24.4242 3.00173 24.8911 1.40834 24.2462 0.573532C23.8033 6.53044e-05 23.2524 0.269196 23.0171 0.384177C22.6183 0.578864 22.4008 0.589118 22.0339 0.34904C21.3338 -0.109036 20.598 -0.123802 19.8753 0.34904C19.5037 0.592194 19.2111 0.592194 18.8396 0.34904C18.1395 -0.109036 17.4039 -0.123802 16.6812 0.34904C16.31 0.591989 16.0917 0.57695 15.6992 0.381852C15.4642 0.265026 14.9138 -0.00854801 14.4681 0.564987C13.8378 1.37628 14.2595 2.91942 15.7562 5.27105C15.6645 5.32061 15.5772 5.37879 15.4956 5.44523C14.9004 4.8166 13.9251 4.16096 12.5147 4.31846C11.3448 4.44937 10.4822 4.0628 9.96447 3.71553C9.72931 3.55803 9.41089 3.62079 9.25325 3.85581C9.09562 4.09096 9.15844 4.40938 9.39353 4.56702C10.0535 5.00951 11.1504 5.50211 12.6284 5.33729C13.7181 5.21507 14.4575 5.77192 14.9177 6.33862C14.9114 6.3605 14.9056 6.38251 14.9002 6.40452C14.5076 6.41067 13.9209 6.44731 13.2748 6.58171C11.7208 6.90498 10.5673 7.64346 9.9389 8.71753C9.79596 8.96184 9.87813 9.27589 10.1224 9.41889C10.3668 9.56183 10.6808 9.4796 10.8237 9.23528C11.7585 7.63779 14.0401 7.44242 14.9464 7.43018C14.9503 7.44146 14.9548 7.4526 14.9589 7.46382C11.725 9.95846 9.47351 12.7405 8.26437 15.738C7.50011 17.6328 7.19482 19.531 7.34979 21.3349C6.85821 21.2622 6.36097 21.2231 5.86133 21.2197V20.9097C5.86133 20.0895 5.19401 19.4222 4.37376 19.4222H2.02056C1.20031 19.4222 0.53299 20.0895 0.53299 20.9097V32.8483C0.53299 33.6686 1.20031 34.3358 2.02056 34.3358H4.37369C5.19394 34.3358 5.86126 33.6685 5.86126 32.8483V32.7022L10.9944 34.6128C11.6842 34.8695 12.4072 34.9997 13.1432 34.9997H20.7917C21.9611 34.9997 23.1012 34.6689 24.0889 34.043C34.2921 27.5749 33.6725 27.9773 33.7314 27.9251C34.5533 27.1955 34.7069 25.96 34.0886 25.0512ZM21.9493 7.53949C20.0747 8.01281 18.2521 8.01281 16.3772 7.53949C15.5727 7.33612 15.8058 5.90126 16.6704 6.11809C18.3478 6.53919 19.9786 6.53919 21.6561 6.11809C22.5057 5.90481 22.7667 7.33291 21.9493 7.53949ZM15.231 1.29411C15.235 1.29609 15.2391 1.29814 15.2429 1.30006C15.9367 1.64486 16.5446 1.66359 17.2425 1.20702C18.1158 0.635329 18.2107 1.55196 19.3574 1.55196C19.9095 1.55196 20.2141 1.35262 20.4366 1.20702C20.8082 0.963796 21.101 0.963933 21.4726 1.20702C22.1735 1.66571 22.7667 1.64308 23.4807 1.29876C23.5862 1.67897 23.3475 2.81244 21.8274 5.07554C21.0726 5.06269 19.9772 5.80405 16.8763 5.11396C15.3595 2.8216 15.125 1.67713 15.231 1.29411ZM33.0786 27.1333L23.5402 33.1774C22.7169 33.6991 21.7665 33.9749 20.7918 33.9749H13.1433C12.5298 33.9749 11.9271 33.8663 11.3521 33.6523L5.86126 31.6086V26.0882C5.86126 25.805 5.63178 25.5756 5.3487 25.5756C5.06563 25.5756 4.83614 25.805 4.83614 26.0882V32.8485C4.83614 33.1035 4.62867 33.3109 4.37376 33.3109H2.02056C1.76558 33.3109 1.55818 33.1034 1.55818 32.8485V20.91C1.55818 20.655 1.76558 20.4477 2.02056 20.4477H4.37369C4.62867 20.4477 4.83608 20.6551 4.83608 20.91V23.6918C4.83608 23.9749 5.06556 24.2044 5.34863 24.2044C5.63171 24.2044 5.86119 23.9749 5.86119 23.6918V22.2452C10.1016 22.2776 11.055 24.5126 13.9601 24.9236C13.9645 24.9242 13.9689 24.9248 13.9733 24.9253L19.6442 25.5782C20.6371 25.7215 21.4013 26.5122 21.5119 27.5077L21.5048 28.4828H16.2162C15.9331 28.4828 15.7036 28.7123 15.7036 28.9954C15.7036 29.2786 15.9331 29.5081 16.2162 29.5081H22.0137C22.0784 29.5081 22.1532 29.4937 22.2183 29.4654C22.2288 29.4607 31.5331 25.3641 31.544 25.3593C32.2147 25.0613 32.8262 25.0187 33.2408 25.6281C33.5632 26.1016 33.4918 26.7418 33.0786 27.1333Z" fill="#00556E"/>
<path d="M19.2983 23.2572C19.5814 23.2572 19.811 23.0277 19.811 22.7446V21.8949C21.25 21.6614 22.0897 20.4966 22.2723 19.41C22.5005 18.0525 21.7895 16.872 20.461 16.4025C20.2262 16.3195 20.0102 16.2401 19.8109 16.1635V12.8951C20.4173 12.9957 20.7814 13.3095 20.8079 13.3329C21.0161 13.5223 21.3384 13.5083 21.5294 13.3012C21.7214 13.0931 21.7083 12.7688 21.5002 12.5768C21.464 12.5435 20.8362 11.9782 19.8109 11.86V11.131C19.8109 10.8479 19.5814 10.6184 19.2983 10.6184C19.0152 10.6184 18.7857 10.8479 18.7857 11.131V11.9014C18.6621 11.9251 18.5355 11.9552 18.4054 11.9943C17.5359 12.2562 16.8859 13.0018 16.7091 13.94C16.5486 14.7915 16.8186 15.6103 17.4135 16.0769C17.7551 16.3448 18.1851 16.5901 18.7857 16.8523V20.9061C18.1929 20.881 17.828 20.7697 17.1914 20.3533C16.9546 20.1983 16.6368 20.2646 16.4819 20.5016C16.3269 20.7385 16.3933 21.0562 16.6302 21.2112C17.467 21.7586 18.0264 21.9014 18.7857 21.9309V22.7446C18.7857 23.0277 19.0152 23.2572 19.2983 23.2572ZM18.0463 15.2703C17.7536 15.0407 17.6272 14.6037 17.7166 14.1299C17.7994 13.6905 18.1015 13.1566 18.7011 12.976C18.7297 12.9674 18.7577 12.96 18.7857 12.9525V15.7214C18.4788 15.5682 18.2381 15.4207 18.0463 15.2703ZM20.1193 17.3691C21.3949 17.8199 21.3159 18.9152 21.2613 19.2401C21.1482 19.9128 20.6544 20.631 19.8109 20.8471V17.258C19.9107 17.2945 20.0126 17.3314 20.1193 17.3691Z" fill="#00556E"/>
</g>
<defs>
<clipPath id="clip0">
<rect width="35" height="35" fill="white"/>
</clipPath>
</defs>
</svg>
