<svg width="23" height="23" viewBox="0 0 23 23" fill="none" xmlns="http://www.w3.org/2000/svg">
<g clip-path="url(#clip0)">
<path d="M20.6042 3.83331H2.39582C1.07525 3.83331 0 4.90856 0 6.22918V16.7709C0 18.0914 1.07525 19.1667 2.39582 19.1667H20.6041C21.9247 19.1667 23 18.0914 23 16.7709V6.22918C23 4.90856 21.9248 3.83331 20.6042 3.83331ZM22.0417 16.7708C22.0417 17.5634 21.3967 18.2083 20.6042 18.2083H2.39582C1.60326 18.2083 0.958318 17.5634 0.958318 16.7708V6.22918C0.958318 5.43662 1.60326 4.79168 2.39582 4.79168H20.6041C21.3967 4.79168 22.0416 5.43662 22.0416 6.22918V16.7708H22.0417Z" fill="#555555"/>
<path d="M22.5208 6.70831H0.479182C0.214682 6.70831 0 6.923 0 7.1875V10.0625C0 10.327 0.214682 10.5417 0.479182 10.5417H22.5209C22.7854 10.5417 23 10.327 23 10.0625V7.1875C23 6.923 22.7853 6.70831 22.5208 6.70831ZM22.0417 9.58331H0.958318V7.66663H22.0416V9.58331H22.0417Z" fill="#555555"/>
<path d="M9.10418 13.4167H3.35418C3.08968 13.4167 2.875 13.6314 2.875 13.8959C2.875 14.1604 3.08968 14.375 3.35418 14.375H9.10418C9.36868 14.375 9.58336 14.1603 9.58336 13.8958C9.58336 13.6313 9.36868 13.4167 9.10418 13.4167Z" fill="#555555"/>
<path d="M9.10418 15.3333H3.35418C3.08968 15.3333 2.875 15.548 2.875 15.8125C2.875 16.077 3.08968 16.2917 3.35418 16.2917H9.10418C9.36868 16.2917 9.58336 16.077 9.58336 15.8125C9.58332 15.548 9.36868 15.3333 9.10418 15.3333Z" fill="#555555"/>
<path d="M18.6875 12.4583H17.7292C16.9366 12.4583 16.2917 13.1033 16.2917 13.8958V14.8541C16.2917 15.6467 16.9366 16.2916 17.7292 16.2916H18.6875C19.4801 16.2916 20.125 15.6467 20.125 14.8541V13.8958C20.125 13.1033 19.4801 12.4583 18.6875 12.4583ZM19.1667 14.8542C19.1667 15.1187 18.952 15.3334 18.6875 15.3334H17.7292C17.4647 15.3334 17.25 15.1187 17.25 14.8542V13.8959C17.25 13.6314 17.4647 13.4167 17.7292 13.4167H18.6875C18.952 13.4167 19.1667 13.6314 19.1667 13.8959V14.8542Z" fill="#555555"/>
</g>
<defs>
<clipPath id="clip0">
<rect width="23" height="23" fill="white"/>
</clipPath>
</defs>
</svg>
