<svg width="36" height="36" viewBox="0 0 36 36" fill="none" xmlns="http://www.w3.org/2000/svg">
<path d="M21 1.8H15C14.6689 1.8 14.4001 2.06881 14.4001 2.39998C14.4001 2.73115 14.6689 2.99996 15 2.99996H21C21.3312 2.99996 21.6 2.73115 21.6 2.39998C21.6 2.06881 21.3312 1.8 21 1.8Z" fill="#00556E"/>
<path d="M25.2 1.8H24.6C24.2689 1.8 24 2.06881 24 2.39998C24 2.73115 24.2689 2.99996 24.6 2.99996H25.2C25.5312 2.99996 25.8 2.73115 25.8 2.39998C25.8 2.06881 25.5312 1.8 25.2 1.8Z" fill="#00556E"/>
<path d="M18.7452 30.6H17.2554C16.3428 30.6 15.6 31.3428 15.6 32.2554V32.5452C15.6 33.4578 16.3428 34.2 17.2548 34.2H18.7446C19.6572 34.2 20.4 33.4578 20.4 32.5452V32.2554C20.4 31.3428 19.6572 30.6 18.7452 30.6ZM19.2 32.5452C19.2 32.796 18.996 33 18.7452 33H17.2554C17.004 33 16.8 32.796 16.8 32.5452V32.2554C16.8 32.004 17.004 31.8 17.2554 31.8H18.7446C18.996 31.8 19.2 32.0039 19.2 32.2554V32.5452Z" fill="#00556E"/>
<path d="M26.0316 0H9.96898C8.77317 0 7.79998 0.973195 7.79998 2.169V33.831C7.79998 35.0268 8.77317 36 9.96898 36H26.031C27.2268 36 28.2 35.0268 28.2 33.8316V2.169C28.2 0.973195 27.2268 0 26.0316 0ZM27 33.831C27 34.365 26.5656 34.8 26.0316 34.8H9.96898C9.43439 34.8 9 34.365 9 33.8316V2.169C9 1.63498 9.43439 1.20002 9.96898 1.20002H26.031C26.5655 1.20002 26.9999 1.63505 26.9999 2.169V33.831H27Z" fill="#00556E"/>
<path d="M27.6 3.59999H8.40002C8.06885 3.59999 7.80005 3.8688 7.80005 4.19997V29.4C7.80005 29.7311 8.06885 29.9999 8.40002 29.9999H27.6C27.9312 29.9999 28.2 29.7311 28.2 29.4V4.19997C28.2 3.8688 27.9312 3.59999 27.6 3.59999ZM27 28.8H9V4.80001H27V28.8Z" fill="#00556E"/>
</svg>
