<svg width="31" height="31" viewBox="0 0 31 31" fill="none" xmlns="http://www.w3.org/2000/svg">
<path d="M15.5 3.63281V6.05469H13.0781V3.63281H15.5ZM13.0781 17.8613V21.3125H15.5V17.8613H13.0781ZM20.3438 31V28.5781H17.9219V26.1562H15.5V31H20.3438ZM25.1875 13.0176H17.9219V15.4395H25.1875V13.0176ZM25.1875 17.8613H28.5781V15.4395H25.1875V17.8613ZM25.1875 21.3125V23.7344H31V17.8613H28.5781V21.3125H25.1875ZM17.9219 0H15.5V3.63281H17.9219V0ZM15.5 10.8984H17.9219V6.05469H15.5V8.47656H13.0781V15.4395H15.5V10.8984ZM0 13.0176V17.8613H2.42188V15.4395H6.05469V13.0176H0ZM17.9219 17.8613V15.4395H15.5V17.8613H17.9219ZM22.7656 20.2832H25.1875V17.8613H22.7656V20.2832ZM28.5781 15.4395H31V13.0176H28.5781V15.4395ZM20.3438 17.8613H17.9219V21.3125H15.5V23.7344H20.3438V17.8613ZM13.0781 26.1562H15.5V23.7344H13.0781V26.1562ZM20.3438 23.7344V26.1562H25.1875V23.7344H20.3438ZM27.6094 28.5781V26.1562H25.1875V28.5781H27.6094ZM31 31V28.5781H27.6094V31H31ZM22.7656 31H25.1875V28.5781H22.7656V31ZM10.8984 15.4395V13.0176H8.47656V15.4395H6.05469V17.8613H13.0781V15.4395H10.8984ZM10.8984 10.8984H0V0H10.8984V10.8984ZM8.47656 2.42188H2.42188V8.47656H8.47656V2.42188ZM6.66016 4.23828H4.23828V6.66016H6.66016V4.23828ZM31 0V10.8984H20.1016V0H31ZM28.5781 2.42188H22.5234V8.47656H28.5781V2.42188ZM26.7617 4.23828H24.3398V6.66016H26.7617V4.23828ZM0 20.1016H10.8984V31H0V20.1016ZM2.42188 28.5781H8.47656V22.5234H2.42188V28.5781ZM4.23828 26.7617H6.66016V24.3398H4.23828V26.7617Z" fill="#00556E"/>
</svg>
