<svg width="33" height="33" viewBox="0 0 33 33" fill="none" xmlns="http://www.w3.org/2000/svg">
<path d="M32.9887 16.4912L17.9494 0V9.87845H16.2024C11.8747 9.87845 7.80588 11.5638 4.74561 14.6241C1.68535 17.6843 0 21.7532 0 26.0811V33L2.88629 29.8375C6.74718 25.6075 12.2277 23.1606 17.9494 23.1049V32.9826L32.9887 16.4912ZM1.93385 28.0285V26.0811C1.93385 22.2698 3.41803 18.6864 6.11298 15.9914C8.80792 13.2965 12.3911 11.8123 16.2024 11.8123H19.883V4.99033L30.3718 16.4912L19.883 27.9923V21.1703H18.1481C12.0442 21.1703 6.17441 23.6616 1.93385 28.0285Z" fill="#00556E"/>
</svg>
