<svg width="33" height="33" viewBox="0 0 33 33" fill="none" xmlns="http://www.w3.org/2000/svg">
<g clip-path="url(#clip0)">
<path d="M19.3838 5.85237C19.895 5.85237 20.3108 5.43652 20.3108 4.92534V3.34085C20.3108 2.82968 19.8949 2.41382 19.3838 2.41382H13.6161C13.1049 2.41382 12.6891 2.82968 12.6891 3.34085V4.92534C12.6891 5.43652 13.105 5.85237 13.6161 5.85237H19.3838ZM13.6558 3.38048H19.3442V4.88571H13.6558V3.38048Z" fill="#00556E"/>
<path d="M6.35106 8.39516V14.9023C6.35106 15.7629 7.05125 16.4631 7.9119 16.4631H25.0881C25.9488 16.4631 26.649 15.7629 26.649 14.9023V8.39516C26.649 7.53451 25.9488 6.83432 25.0881 6.83432H24.2004C23.9335 6.83432 23.7171 7.05072 23.7171 7.31765C23.7171 7.58458 23.9335 7.80098 24.2004 7.80098H25.0881C25.4158 7.80098 25.6823 8.06753 25.6823 8.39516V14.9023C25.6823 15.2299 25.4158 15.4964 25.0881 15.4964H7.9119C7.58427 15.4964 7.31772 15.2299 7.31772 14.9023V8.39516C7.31772 8.06753 7.58427 7.80098 7.9119 7.80098H21.9448C22.2118 7.80098 22.4282 7.58458 22.4282 7.31765C22.4282 7.05072 22.2118 6.83432 21.9448 6.83432H7.9119C7.05125 6.83432 6.35106 7.53451 6.35106 8.39516Z" fill="#00556E"/>
<path d="M29.4653 30.8244L27.0838 26.6994C28.3036 26.2858 29.1842 25.1306 29.1842 23.7729V21.2512C29.1842 21.251 29.1842 21.2508 29.1842 21.2506V5.23694C29.1842 2.36066 26.8576 0 23.9472 0H9.05269C6.16507 0 3.81582 2.34925 3.81582 5.23694V16.4464C3.81582 16.7133 4.03222 16.9297 4.29915 16.9297C4.56608 16.9297 4.78248 16.7133 4.78248 16.4464V5.23694C4.78248 2.88234 6.69809 0.966665 9.05269 0.966665H23.9472C26.3085 0.966665 28.2175 2.88105 28.2175 5.23694V20.7679H26.4228C26.1963 19.5931 25.1609 18.7027 23.9209 18.7027H8.98947C8.98947 18.7027 8.98947 18.7027 8.98941 18.7027C8.98934 18.7027 8.98934 18.7027 8.98928 18.7027C7.7493 18.7027 6.71388 19.5931 6.48736 20.7679H4.78248V18.7019C4.78248 18.435 4.56608 18.2186 4.29915 18.2186C4.03222 18.2186 3.81582 18.435 3.81582 18.7019V21.2506V21.2512C3.81582 24.06 3.80338 23.9507 3.85854 24.2819C4.04459 25.4042 4.84673 26.3392 5.91593 26.7L3.53471 30.8244C3.13496 31.5168 3.37302 32.4053 4.06541 32.8051C4.75838 33.2053 5.64481 32.9695 6.04617 32.2744L6.73295 31.0848H26.2671L26.9539 32.2744C27.3537 32.9669 28.2388 33.2069 28.9346 32.8051C29.627 32.4053 29.865 31.5168 29.4653 30.8244ZM25.5027 21.2512C25.5027 22.1232 24.7933 22.8329 23.9207 22.833C23.0486 22.8329 22.339 22.1233 22.339 21.2512C22.339 20.379 23.0486 19.6694 23.9208 19.6694C24.7931 19.6694 25.5027 20.379 25.5027 21.2512ZM21.924 19.6694C21.1886 20.596 21.189 21.9071 21.924 22.833H10.9861C11.7207 21.9076 11.7212 20.5951 10.9861 19.6694H21.924ZM8.98934 19.6694C9.85573 19.6694 10.5712 20.3739 10.5712 21.2512C10.5712 22.123 9.86101 22.833 8.98934 22.833C8.11709 22.833 7.40749 22.1234 7.40749 21.2512C7.40749 20.379 8.11709 19.6694 8.98934 19.6694ZM6.48684 21.7346C6.71607 22.9213 7.76213 23.7984 8.98702 23.7996C8.98779 23.7996 8.98857 23.7997 8.98934 23.7997H8.98947H8.98966H23.9208C25.1549 23.7997 26.1958 22.913 26.4234 21.7346H28.2175V23.7729C28.2175 24.947 27.2607 25.8962 26.0942 25.8962H24.1086C23.3429 25.8962 8.39935 25.8962 6.90586 25.8962C5.8192 25.8962 4.91595 25.0746 4.79634 24.0121C4.77771 23.8455 4.78248 23.9598 4.78248 21.7346H6.48684V21.7346ZM5.20897 31.7911C5.07545 32.0224 4.7801 32.1015 4.54874 31.968C4.31745 31.8345 4.23825 31.5391 4.37184 31.3078L6.93808 26.8629H8.05425L5.20897 31.7911ZM7.29104 30.1182L7.84913 29.1515H25.1509L25.709 30.1182H7.29104ZM8.40722 28.1849L9.17043 26.8629H23.8295L24.5927 28.1849H8.40722ZM28.4512 31.9679C28.2205 32.1012 27.9249 32.0229 27.791 31.791L24.9457 26.8628H26.0619L28.6281 31.3077C28.7617 31.539 28.6826 31.8344 28.4512 31.9679Z" fill="#00556E"/>
</g>
<defs>
<clipPath id="clip0">
<rect width="33" height="33" fill="white"/>
</clipPath>
</defs>
</svg>
